<svg height="610" style="background-color:#F2F3F5" viewBox="-10 -10 620 620" width="610" xmlns="http://www.w3.org/2000/svg">
<rect fill="#F5F5F5" height="580" stroke="#121212" stroke-width="3" width="580" x="10" y="10"/>
<line stroke="#121212" stroke-linecap="round" stroke-width="3" x1="300" x2="300" y1="20" y2="580"/>
<line stroke="#121212" stroke-linecap="round" stroke-width="3" x1="20" x2="580" y1="300" y2="300"/>
<line stroke="#121212" stroke-linecap="round" stroke-width="3" x1="101" x2="229" y1="527" y2="277"/>
<line stroke="#121212" stroke-linecap="round" stroke-width="3" x1="74" x2="485" y1="33" y2="453"/>
<line stroke="#121212" stroke-linecap="round" stroke-width="3" x1="486" x2="62" y1="503" y2="495"/>
<line stroke="#121212" stroke-linecap="round" stroke-width="3" x1="33" x2="230" y1="219" y2="411"/>
<line stroke="#121212" stroke-linecap="round" stroke-width="3" x1="347" x2="92" y1="184" y2="539"/>
<line stroke="#121212" stroke-linecap="round" stroke-width="3" x1="166" x2="251" y1="116" y2="482"/>
<line stroke="#121212" stroke-linecap="round" stroke-width="3" x1="39" x2="163" y1="559" y2="439"/>
<line stroke="#121212" stroke-linecap="round" stroke-width="3" x1="212" x2="405" y1="493" y2="148"/>
<line stroke="#121212" stroke-linecap="round" stroke-width="3" x1="205" x2="568" y1="531" y2="456"/>
<line stroke="#121212" stroke-linecap="round" stroke-width="3" x1="350" x2="66" y1="119" y2="209"/>
<line stroke="#121212" stroke-linecap="round" stroke-width="3" x1="318" x2="546" y1="218" y2="415"/>
<line stroke="#121212" stroke-linecap="round" stroke-width="3" x1="115" x2="215" y1="491" y2="122"/>
<line stroke="#121212" stroke-linecap="round" stroke-width="3" x1="515" x2="95" y1="353" y2="479"/>
<line stroke="#121212" stroke-linecap="round" stroke-width="3" x1="243" x2="166" y1="556" y2="348"/>
<line stroke="#121212" stroke-linecap="round" stroke-width="3" x1="490" x2="456" y1="102" y2="270"/>
<line stroke="#121212" stroke-linecap="round" stroke-width="3" x1="191" x2="512" y1="197" y2="119"/>
<line stroke="#121212" stroke-linecap="round" stroke-width="3" x1="371" x2="500" y1="176" y2="151"/>
<line stroke="#121212" stroke-linecap="round" stroke-width="3" x1="529" x2="517" y1="474" y2="382"/>
<line stroke="#121212" stroke-linecap="round" stroke-width="3" x1="72" x2="409" y1="503" y2="53"/>
<line stroke="#121212" stroke-linecap="round" stroke-width="3" x1="362" x2="68" y1="429" y2="95"/>
<line stroke="#121212" stroke-linecap="round" stroke-width="3" x1="147" x2="135" y1="147" y2="456"/>
<line stroke="#121212" stroke-linecap="round" stroke-width="3" x1="180" x2="180" y1="90" y2="210"/>
<line stroke="#121212" stroke-linecap="round" stroke-width="3" x1="270" x2="30" y1="30" y2="270"/>
<line stroke="#121212" stroke-linecap="round" stroke-width="3" x1="90" x2="390" y1="255" y2="420"/>
<line stroke="#121212" stroke-linecap="round" stroke-width="3" x1="270" x2="465" y1="480" y2="240"/>
<line stroke="#121212" stroke-linecap="round" stroke-width="3" x1="510" x2="510" y1="90" y2="210"/>
<circle cx="222" cy="498" fill="#fc1212" r="3"/>
<circle cx="104" cy="496" fill="#fc1212" r="3"/>
<circle cx="327" cy="409" fill="#fc1212" r="3"/>
<circle cx="188" cy="406" fill="#fc1212" r="3"/>
<circle cx="518" cy="391" fill="#fc1212" r="3"/>
<circle cx="321" cy="382" fill="#fc1212" r="3"/>
<circle cx="177" cy="379" fill="#fc1212" r="3"/>
<circle cx="173" cy="368" fill="#fc1212" r="3"/>
<circle cx="203" cy="328" fill="#fc1212" r="3"/>
<circle cx="57" cy="242" fill="#fc1212" r="3"/>
<circle cx="321" cy="221" fill="#fc1212" r="3"/>
<circle cx="180" cy="173" fill="#fc1212" r="3"/>
<circle cx="132" cy="167" fill="#fc1212" r="3"/>
<circle cx="170" cy="130" fill="#fc1212" r="3"/>
<circle cx="169" cy="130" fill="#fc1212" r="3"/>
<circle cx="169" cy="130" fill="#fc1212" r="3"/>
</svg>