<svg height="610" style="background-color:#F2F3F5" viewBox="-10 -10 620 620" width="610" xmlns="http://www.w3.org/2000/svg">
<rect fill="#F5F5F5" height="580" stroke="#121212" stroke-width="3" width="580" x="10" y="10"/>
<line stroke="#121212" stroke-linecap="round" stroke-width="3" x1="300" x2="300" y1="20" y2="580"/>
<line stroke="#121212" stroke-linecap="round" stroke-width="3" x1="20" x2="580" y1="300" y2="300"/>
<line stroke="#121212" stroke-linecap="round" stroke-width="3" x1="61" x2="175" y1="47" y2="420"/>
<line stroke="#121212" stroke-linecap="round" stroke-width="3" x1="173" x2="455" y1="448" y2="47"/>
<line stroke="#121212" stroke-linecap="round" stroke-width="3" x1="359" x2="321" y1="547" y2="566"/>
<line stroke="#121212" stroke-linecap="round" stroke-width="3" x1="510" x2="140" y1="93" y2="245"/>
<line stroke="#121212" stroke-linecap="round" stroke-width="3" x1="118" x2="322" y1="241" y2="86"/>
<line stroke="#121212" stroke-linecap="round" stroke-width="3" x1="326" x2="299" y1="369" y2="169"/>
<line stroke="#121212" stroke-linecap="round" stroke-width="3" x1="326" x2="249" y1="58" y2="135"/>
<line stroke="#121212" stroke-linecap="round" stroke-width="3" x1="277" x2="337" y1="444" y2="474"/>
<line stroke="#121212" stroke-linecap="round" stroke-width="3" x1="162" x2="340" y1="247" y2="560"/>
<line stroke="#121212" stroke-linecap="round" stroke-width="3" x1="187" x2="307" y1="300" y2="180"/>
<line stroke="#121212" stroke-linecap="round" stroke-width="3" x1="491" x2="232" y1="177" y2="308"/>
<line stroke="#121212" stroke-linecap="round" stroke-width="3" x1="168" x2="553" y1="339" y2="396"/>
<line stroke="#121212" stroke-linecap="round" stroke-width="3" x1="483" x2="222" y1="179" y2="41"/>
<line stroke="#121212" stroke-linecap="round" stroke-width="3" x1="487" x2="238" y1="282" y2="302"/>
<line stroke="#121212" stroke-linecap="round" stroke-width="3" x1="531" x2="162" y1="326" y2="497"/>
<line stroke="#121212" stroke-linecap="round" stroke-width="3" x1="297" x2="451" y1="267" y2="305"/>
<line stroke="#121212" stroke-linecap="round" stroke-width="3" x1="552" x2="175" y1="258" y2="308"/>
<line stroke="#121212" stroke-linecap="round" stroke-width="3" x1="553" x2="93" y1="298" y2="322"/>
<line stroke="#121212" stroke-linecap="round" stroke-width="3" x1="538" x2="489" y1="440" y2="251"/>
<line stroke="#121212" stroke-linecap="round" stroke-width="3" x1="423" x2="262" y1="469" y2="513"/>
<line stroke="#121212" stroke-linecap="round" stroke-width="3" x1="147" x2="135" y1="147" y2="456"/>
<line stroke="#121212" stroke-linecap="round" stroke-width="3" x1="180" x2="180" y1="90" y2="210"/>
<line stroke="#121212" stroke-linecap="round" stroke-width="3" x1="270" x2="30" y1="30" y2="270"/>
<line stroke="#121212" stroke-linecap="round" stroke-width="3" x1="90" x2="390" y1="255" y2="420"/>
<line stroke="#121212" stroke-linecap="round" stroke-width="3" x1="270" x2="465" y1="480" y2="240"/>
<line stroke="#121212" stroke-linecap="round" stroke-width="3" x1="510" x2="510" y1="90" y2="210"/>
<circle cx="120" cy="240" fill="#fc1212" r="3"/>
<circle cx="144" cy="320" fill="#fc1212" r="3"/>
<circle cx="140" cy="307" fill="#fc1212" r="3"/>
<circle cx="106" cy="193" fill="#fc1212" r="3"/>
<circle cx="131" cy="278" fill="#fc1212" r="3"/>
<circle cx="386" cy="144" fill="#fc1212" r="3"/>
<circle cx="310" cy="252" fill="#fc1212" r="3"/>
<circle cx="230" cy="367" fill="#fc1212" r="3"/>
<circle cx="293" cy="277" fill="#fc1212" r="3"/>
<circle cx="242" cy="349" fill="#fc1212" r="3"/>
<circle cx="395" cy="132" fill="#fc1212" r="3"/>
<circle cx="278" cy="298" fill="#fc1212" r="3"/>
<circle cx="299" cy="268" fill="#fc1212" r="3"/>
<circle cx="281" cy="294" fill="#fc1212" r="3"/>
<circle cx="267" cy="313" fill="#fc1212" r="3"/>
<circle cx="248" cy="341" fill="#fc1212" r="3"/>
<circle cx="338" cy="557" fill="#fc1212" r="3"/>
<circle cx="301" cy="179" fill="#fc1212" r="3"/>
<circle cx="403" cy="137" fill="#fc1212" r="3"/>
<circle cx="143" cy="244" fill="#fc1212" r="3"/>
<circle cx="510" cy="93" fill="#fc1212" r="3"/>
<circle cx="316" cy="90" fill="#fc1212" r="3"/>
<circle cx="144" cy="222" fill="#fc1212" r="3"/>
<circle cx="180" cy="195" fill="#fc1212" r="3"/>
<circle cx="301" cy="185" fill="#fc1212" r="3"/>
<circle cx="312" cy="267" fill="#fc1212" r="3"/>
<circle cx="325" cy="362" fill="#fc1212" r="3"/>
<circle cx="316" cy="295" fill="#fc1212" r="3"/>
<circle cx="313" cy="271" fill="#fc1212" r="3"/>
<circle cx="315" cy="290" fill="#fc1212" r="3"/>
<circle cx="318" cy="311" fill="#fc1212" r="3"/>
<circle cx="301" cy="83" fill="#fc1212" r="3"/>
<circle cx="292" cy="451" fill="#fc1212" r="3"/>
<circle cx="190" cy="297" fill="#fc1212" r="3"/>
<circle cx="218" cy="346" fill="#fc1212" r="3"/>
<circle cx="274" cy="445" fill="#fc1212" r="3"/>
<circle cx="195" cy="305" fill="#fc1212" r="3"/>
<circle cx="201" cy="317" fill="#fc1212" r="3"/>
<circle cx="306" cy="501" fill="#fc1212" r="3"/>
<circle cx="200" cy="315" fill="#fc1212" r="3"/>
<circle cx="284" cy="462" fill="#fc1212" r="3"/>
<circle cx="245" cy="301" fill="#fc1212" r="3"/>
<circle cx="308" cy="270" fill="#fc1212" r="3"/>
<circle cx="251" cy="298" fill="#fc1212" r="3"/>
<circle cx="423" cy="376" fill="#fc1212" r="3"/>
<circle cx="526" cy="391" fill="#fc1212" r="3"/>
<circle cx="270" cy="354" fill="#fc1212" r="3"/>
<circle cx="361" cy="367" fill="#fc1212" r="3"/>
<circle cx="246" cy="53" fill="#fc1212" r="3"/>
<circle cx="388" cy="290" fill="#fc1212" r="3"/>
<circle cx="426" cy="286" fill="#fc1212" r="3"/>
<circle cx="511" cy="335" fill="#fc1212" r="3"/>
<circle cx="362" cy="404" fill="#fc1212" r="3"/>
<circle cx="311" cy="428" fill="#fc1212" r="3"/>
<circle cx="363" cy="283" fill="#fc1212" r="3"/>
<circle cx="446" cy="304" fill="#fc1212" r="3"/>
<circle cx="418" cy="297" fill="#fc1212" r="3"/>
<circle cx="493" cy="266" fill="#fc1212" r="3"/>
<circle cx="185" cy="307" fill="#fc1212" r="3"/>
<circle cx="437" cy="274" fill="#fc1212" r="3"/>
<circle cx="502" cy="301" fill="#fc1212" r="3"/>
<circle cx="140" cy="320" fill="#fc1212" r="3"/>
<circle cx="203" cy="317" fill="#fc1212" r="3"/>
<circle cx="411" cy="306" fill="#fc1212" r="3"/>
<circle cx="146" cy="153" fill="#fc1212" r="3"/>
<circle cx="141" cy="283" fill="#fc1212" r="3"/>
<circle cx="180" cy="120" fill="#fc1212" r="3"/>
<circle cx="340" cy="392" fill="#fc1212" r="3"/>
</svg>