<svg height="610" style="background-color:#F2F3F5" viewBox="-10 -10 620 620" width="610" xmlns="http://www.w3.org/2000/svg">
<rect fill="#F5F5F5" height="580" stroke="#121212" stroke-width="3" width="580" x="10" y="10"/>
<line stroke="#121212" stroke-linecap="round" stroke-width="3" x1="300" x2="300" y1="20" y2="580"/>
<line stroke="#121212" stroke-linecap="round" stroke-width="3" x1="20" x2="580" y1="300" y2="300"/>
<line stroke="#121212" stroke-linecap="round" stroke-width="3" x1="396" x2="428" y1="369" y2="97"/>
<line stroke="#121212" stroke-linecap="round" stroke-width="3" x1="134" x2="358" y1="258" y2="534"/>
<line stroke="#121212" stroke-linecap="round" stroke-width="3" x1="501" x2="375" y1="238" y2="504"/>
<line stroke="#121212" stroke-linecap="round" stroke-width="3" x1="320" x2="284" y1="208" y2="542"/>
<line stroke="#121212" stroke-linecap="round" stroke-width="3" x1="130" x2="85" y1="394" y2="514"/>
<line stroke="#121212" stroke-linecap="round" stroke-width="3" x1="201" x2="325" y1="33" y2="423"/>
<line stroke="#121212" stroke-linecap="round" stroke-width="3" x1="445" x2="350" y1="409" y2="156"/>
<line stroke="#121212" stroke-linecap="round" stroke-width="3" x1="350" x2="133" y1="155" y2="207"/>
<line stroke="#121212" stroke-linecap="round" stroke-width="3" x1="86" x2="542" y1="417" y2="493"/>
<line stroke="#121212" stroke-linecap="round" stroke-width="3" x1="294" x2="82" y1="61" y2="115"/>
<line stroke="#121212" stroke-linecap="round" stroke-width="3" x1="369" x2="521" y1="31" y2="153"/>
<line stroke="#121212" stroke-linecap="round" stroke-width="3" x1="116" x2="247" y1="264" y2="181"/>
<line stroke="#121212" stroke-linecap="round" stroke-width="3" x1="58" x2="208" y1="167" y2="198"/>
<line stroke="#121212" stroke-linecap="round" stroke-width="3" x1="444" x2="261" y1="242" y2="38"/>
<line stroke="#121212" stroke-linecap="round" stroke-width="3" x1="173" x2="347" y1="47" y2="72"/>
<line stroke="#121212" stroke-linecap="round" stroke-width="3" x1="555" x2="438" y1="515" y2="302"/>
<line stroke="#121212" stroke-linecap="round" stroke-width="3" x1="33" x2="42" y1="75" y2="151"/>
<line stroke="#121212" stroke-linecap="round" stroke-width="3" x1="475" x2="548" y1="282" y2="408"/>
<line stroke="#121212" stroke-linecap="round" stroke-width="3" x1="223" x2="470" y1="194" y2="476"/>
<line stroke="#121212" stroke-linecap="round" stroke-width="3" x1="418" x2="184" y1="447" y2="224"/>
<line stroke="#121212" stroke-linecap="round" stroke-width="3" x1="147" x2="135" y1="147" y2="456"/>
<line stroke="#121212" stroke-linecap="round" stroke-width="3" x1="180" x2="180" y1="90" y2="210"/>
<line stroke="#121212" stroke-linecap="round" stroke-width="3" x1="270" x2="30" y1="30" y2="270"/>
<line stroke="#121212" stroke-linecap="round" stroke-width="3" x1="90" x2="390" y1="255" y2="420"/>
<line stroke="#121212" stroke-linecap="round" stroke-width="3" x1="270" x2="465" y1="480" y2="240"/>
<line stroke="#121212" stroke-linecap="round" stroke-width="3" x1="510" x2="510" y1="90" y2="210"/>
<circle cx="404" cy="301" fill="#fc1212" r="3"/>
<circle cx="415" cy="210" fill="#fc1212" r="3"/>
<circle cx="402" cy="316" fill="#fc1212" r="3"/>
<circle cx="294" cy="454" fill="#fc1212" r="3"/>
<circle cx="291" cy="451" fill="#fc1212" r="3"/>
<circle cx="142" cy="267" fill="#fc1212" r="3"/>
<circle cx="165" cy="296" fill="#fc1212" r="3"/>
<circle cx="292" cy="452" fill="#fc1212" r="3"/>
<circle cx="434" cy="380" fill="#fc1212" r="3"/>
<circle cx="392" cy="468" fill="#fc1212" r="3"/>
<circle cx="455" cy="334" fill="#fc1212" r="3"/>
<circle cx="477" cy="287" fill="#fc1212" r="3"/>
<circle cx="417" cy="415" fill="#fc1212" r="3"/>
<circle cx="407" cy="436" fill="#fc1212" r="3"/>
<circle cx="304" cy="357" fill="#fc1212" r="3"/>
<circle cx="294" cy="452" fill="#fc1212" r="3"/>
<circle cx="311" cy="294" fill="#fc1212" r="3"/>
<circle cx="306" cy="340" fill="#fc1212" r="3"/>
<circle cx="303" cy="372" fill="#fc1212" r="3"/>
<circle cx="294" cy="449" fill="#fc1212" r="3"/>
<circle cx="119" cy="422" fill="#fc1212" r="3"/>
<circle cx="248" cy="179" fill="#fc1212" r="3"/>
<circle cx="217" cy="81" fill="#fc1212" r="3"/>
<circle cx="207" cy="52" fill="#fc1212" r="3"/>
<circle cx="269" cy="247" fill="#fc1212" r="3"/>
<circle cx="296" cy="331" fill="#fc1212" r="3"/>
<circle cx="217" cy="82" fill="#fc1212" r="3"/>
<circle cx="310" cy="376" fill="#fc1212" r="3"/>
<circle cx="322" cy="415" fill="#fc1212" r="3"/>
<circle cx="407" cy="310" fill="#fc1212" r="3"/>
<circle cx="187" cy="194" fill="#fc1212" r="3"/>
<circle cx="144" cy="204" fill="#fc1212" r="3"/>
<circle cx="180" cy="196" fill="#fc1212" r="3"/>
<circle cx="136" cy="425" fill="#fc1212" r="3"/>
<circle cx="292" cy="451" fill="#fc1212" r="3"/>
<circle cx="284" cy="64" fill="#fc1212" r="3"/>
<circle cx="286" cy="63" fill="#fc1212" r="3"/>
<circle cx="180" cy="90" fill="#fc1212" r="3"/>
<circle cx="219" cy="80" fill="#fc1212" r="3"/>
<circle cx="510" cy="144" fill="#fc1212" r="3"/>
<circle cx="224" cy="195" fill="#fc1212" r="3"/>
<circle cx="143" cy="247" fill="#fc1212" r="3"/>
<circle cx="145" cy="185" fill="#fc1212" r="3"/>
<circle cx="180" cy="192" fill="#fc1212" r="3"/>
<circle cx="119" cy="180" fill="#fc1212" r="3"/>
<circle cx="284" cy="63" fill="#fc1212" r="3"/>
<circle cx="242" cy="57" fill="#fc1212" r="3"/>
<circle cx="367" cy="359" fill="#fc1212" r="3"/>
<circle cx="388" cy="419" fill="#fc1212" r="3"/>
<circle cx="349" cy="382" fill="#fc1212" r="3"/>
<circle cx="146" cy="153" fill="#fc1212" r="3"/>
<circle cx="141" cy="283" fill="#fc1212" r="3"/>
<circle cx="180" cy="120" fill="#fc1212" r="3"/>
<circle cx="340" cy="392" fill="#fc1212" r="3"/>
</svg>