<svg height="620" style="background-color:#F2F3F5" viewBox="0 0 620 620" width="620" xmlns="http://www.w3.org/2000/svg">
<rect fill="#F5F5F5" height="600" stroke="#121212" stroke-width="3" width="600" x="10" y="10"/>
<line stroke="#85e456" stroke-linecap="round" stroke-width="3" x1="185" x2="179" y1="10" y2="10"/>
<line stroke="#85e456" stroke-linecap="round" stroke-width="3" x1="185" x2="191" y1="10" y2="10"/>
<line stroke="#85e456" stroke-linecap="round" stroke-width="3" x1="179" x2="179" y1="10" y2="10"/>
<line stroke="#85e456" stroke-linecap="round" stroke-width="3" x1="191" x2="191" y1="10" y2="10"/>
<line stroke="#6e3e73" stroke-linecap="round" stroke-width="3" x1="325" x2="294" y1="325" y2="357"/>
<line stroke="#6e3e73" stroke-linecap="round" stroke-width="3" x1="325" x2="394" y1="325" y2="256"/>
<line stroke="#6e3e73" stroke-linecap="round" stroke-width="3" x1="294" x2="294" y1="357" y2="357"/>
<line stroke="#6e3e73" stroke-linecap="round" stroke-width="3" x1="394" x2="394" y1="256" y2="256"/>
<line stroke="#6e3e73" stroke-linecap="round" stroke-width="3" x1="294" x2="223" y1="357" y2="427"/>
<line stroke="#6e3e73" stroke-linecap="round" stroke-width="3" x1="394" x2="423" y1="256" y2="430"/>
<line stroke="#6e3e73" stroke-linecap="round" stroke-width="3" x1="223" x2="10" y1="427" y2="705"/>
<line stroke="#6e3e73" stroke-linecap="round" stroke-width="3" x1="423" x2="479" y1="430" y2="777"/>
<line stroke="#11f923" stroke-linecap="round" stroke-width="3" x1="497" x2="429" y1="10" y2="10"/>
<line stroke="#11f923" stroke-linecap="round" stroke-width="3" x1="497" x2="567" y1="10" y2="10"/>
<line stroke="#11f923" stroke-linecap="round" stroke-width="3" x1="429" x2="429" y1="10" y2="10"/>
<line stroke="#11f923" stroke-linecap="round" stroke-width="3" x1="567" x2="567" y1="10" y2="10"/>
<line stroke="#11f923" stroke-linecap="round" stroke-width="3" x1="429" x2="429" y1="10" y2="10"/>
<line stroke="#11f923" stroke-linecap="round" stroke-width="3" x1="567" x2="567" y1="10" y2="10"/>
<line stroke="#11f923" stroke-linecap="round" stroke-width="3" x1="429" x2="400" y1="10" y2="191"/>
<line stroke="#11f923" stroke-linecap="round" stroke-width="3" x1="567" x2="670" y1="10" y2="10"/>
<line stroke="#11f923" stroke-linecap="round" stroke-width="3" x1="400" x2="394" y1="191" y2="256"/>
<line stroke="#11f923" stroke-linecap="round" stroke-width="3" x1="670" x2="725" y1="10" y2="10"/>
<line stroke="#11f923" stroke-linecap="round" stroke-width="3" x1="394" x2="394" y1="256" y2="256"/>
<line stroke="#11f923" stroke-linecap="round" stroke-width="3" x1="725" x2="725" y1="10" y2="10"/>
<line stroke="#11f923" stroke-linecap="round" stroke-width="3" x1="394" x2="423" y1="256" y2="430"/>
<line stroke="#11f923" stroke-linecap="round" stroke-width="3" x1="725" x2="1019" y1="10" y2="10"/>
<line stroke="#11f923" stroke-linecap="round" stroke-width="3" x1="423" x2="479" y1="430" y2="777"/>
<line stroke="#11f923" stroke-linecap="round" stroke-width="3" x1="1019" x2="1942" y1="10" y2="10"/>
<line stroke="#f317a2" stroke-linecap="round" stroke-width="3" x1="277" x2="191" y1="10" y2="10"/>
<line stroke="#f317a2" stroke-linecap="round" stroke-width="3" x1="277" x2="363" y1="10" y2="10"/>
<line stroke="#f317a2" stroke-linecap="round" stroke-width="3" x1="191" x2="191" y1="10" y2="10"/>
<line stroke="#f317a2" stroke-linecap="round" stroke-width="3" x1="363" x2="363" y1="10" y2="10"/>
<line stroke="#f317a2" stroke-linecap="round" stroke-width="3" x1="191" x2="191" y1="10" y2="10"/>
<line stroke="#f317a2" stroke-linecap="round" stroke-width="3" x1="363" x2="363" y1="10" y2="10"/>
<line stroke="#f317a2" stroke-linecap="round" stroke-width="3" x1="191" x2="140" y1="10" y2="10"/>
<line stroke="#f317a2" stroke-linecap="round" stroke-width="3" x1="363" x2="413" y1="10" y2="10"/>
<line stroke="#f317a2" stroke-linecap="round" stroke-width="3" x1="140" x2="123" y1="10" y2="10"/>
<line stroke="#f317a2" stroke-linecap="round" stroke-width="3" x1="413" x2="429" y1="10" y2="10"/>
<line stroke="#f317a2" stroke-linecap="round" stroke-width="3" x1="123" x2="123" y1="10" y2="10"/>
<line stroke="#f317a2" stroke-linecap="round" stroke-width="3" x1="429" x2="429" y1="10" y2="10"/>
<line stroke="#f317a2" stroke-linecap="round" stroke-width="3" x1="123" x2="123" y1="10" y2="10"/>
<line stroke="#f317a2" stroke-linecap="round" stroke-width="3" x1="429" x2="429" y1="10" y2="10"/>
<line stroke="#f317a2" stroke-linecap="round" stroke-width="3" x1="123" x2="60" y1="10" y2="10"/>
<line stroke="#f317a2" stroke-linecap="round" stroke-width="3" x1="429" x2="400" y1="10" y2="191"/>
<line stroke="#f317a2" stroke-linecap="round" stroke-width="3" x1="60" x2="18" y1="10" y2="10"/>
<line stroke="#f317a2" stroke-linecap="round" stroke-width="3" x1="325" x2="294" y1="325" y2="357"/>
<line stroke="#f317a2" stroke-linecap="round" stroke-width="3" x1="325" x2="394" y1="325" y2="256"/>
<line stroke="#f317a2" stroke-linecap="round" stroke-width="3" x1="400" x2="394" y1="191" y2="256"/>
<line stroke="#f317a2" stroke-linecap="round" stroke-width="3" x1="18" x2="18" y1="10" y2="10"/>
<line stroke="#f317a2" stroke-linecap="round" stroke-width="3" x1="294" x2="294" y1="357" y2="357"/>
<line stroke="#f317a2" stroke-linecap="round" stroke-width="3" x1="18" x2="10" y1="10" y2="10"/>
<line stroke="#f317a2" stroke-linecap="round" stroke-width="3" x1="294" x2="223" y1="357" y2="427"/>
<line stroke="#f317a2" stroke-linecap="round" stroke-width="3" x1="10" x2="10" y1="10" y2="10"/>
<line stroke="#f317a2" stroke-linecap="round" stroke-width="3" x1="223" x2="10" y1="427" y2="705"/>
<circle cx="185" cy="333" fill="#fc1212" r="3"/>
<circle cx="325" cy="373" fill="#fc1212" r="3"/>
<circle cx="497" cy="345" fill="#fc1212" r="3"/>
<circle cx="277" cy="325" fill="#fc1212" r="3"/>
</svg>