<svg height="620" style="background-color:#F2F3F5" viewBox="0 0 620 620" width="620" xmlns="http://www.w3.org/2000/svg">
<rect fill="#F5F5F5" height="600" stroke="#121212" stroke-width="3" width="600" x="10" y="10"/>
<line stroke="#a4ac2a" stroke-linecap="round" stroke-width="3" x1="203" x2="226" y1="10" y2="269"/>
<line stroke="#a4ac2a" stroke-linecap="round" stroke-width="3" x1="226" x2="228" y1="269" y2="288"/>
<line stroke="#a4ac2a" stroke-linecap="round" stroke-width="3" x1="228" x2="231" y1="288" y2="327"/>
<line stroke="#a4ac2a" stroke-linecap="round" stroke-width="3" x1="231" x2="232" y1="327" y2="344"/>
<line stroke="#a4ac2a" stroke-linecap="round" stroke-width="3" x1="232" x2="238" y1="344" y2="412"/>
<line stroke="#a4ac2a" stroke-linecap="round" stroke-width="3" x1="238" x2="182" y1="412" y2="610"/>
<circle cx="185" cy="333" fill="#a4ac2a" r="3"/>
<text fill="#a4ac2a" stroke="none" x="175" y="323">
100
</text>
<line stroke="#5ffce9" stroke-linecap="round" stroke-width="3" x1="325" x2="294" y1="325" y2="356"/>
<line stroke="#5ffce9" stroke-linecap="round" stroke-width="3" x1="325" x2="394" y1="325" y2="256"/>
<line stroke="#5ffce9" stroke-linecap="round" stroke-width="3" x1="294" x2="238" y1="356" y2="412"/>
<line stroke="#5ffce9" stroke-linecap="round" stroke-width="3" x1="394" x2="419" y1="256" y2="407"/>
<line stroke="#5ffce9" stroke-linecap="round" stroke-width="3" x1="238" x2="182" y1="412" y2="610"/>
<line stroke="#5ffce9" stroke-linecap="round" stroke-width="3" x1="419" x2="452" y1="407" y2="610"/>
<circle cx="325" cy="373" fill="#5ffce9" r="3"/>
<text fill="#5ffce9" stroke="none" x="315" y="363">
101
</text>
<line stroke="#d41de7" stroke-linecap="round" stroke-width="3" x1="417" x2="400" y1="10" y2="191"/>
<line stroke="#d41de7" stroke-linecap="round" stroke-width="3" x1="400" x2="394" y1="191" y2="256"/>
<line stroke="#d41de7" stroke-linecap="round" stroke-width="3" x1="394" x2="419" y1="256" y2="407"/>
<line stroke="#d41de7" stroke-linecap="round" stroke-width="3" x1="419" x2="452" y1="407" y2="610"/>
<circle cx="497" cy="345" fill="#d41de7" r="3"/>
<text fill="#d41de7" stroke="none" x="487" y="335">
102
</text>
<line stroke="#300de7" stroke-linecap="round" stroke-width="3" x1="203" x2="226" y1="10" y2="269"/>
<line stroke="#300de7" stroke-linecap="round" stroke-width="3" x1="226" x2="228" y1="269" y2="288"/>
<line stroke="#300de7" stroke-linecap="round" stroke-width="3" x1="228" x2="231" y1="288" y2="327"/>
<line stroke="#300de7" stroke-linecap="round" stroke-width="3" x1="417" x2="400" y1="10" y2="191"/>
<line stroke="#300de7" stroke-linecap="round" stroke-width="3" x1="231" x2="232" y1="327" y2="344"/>
<line stroke="#300de7" stroke-linecap="round" stroke-width="3" x1="325" x2="294" y1="325" y2="356"/>
<line stroke="#300de7" stroke-linecap="round" stroke-width="3" x1="325" x2="394" y1="325" y2="256"/>
<line stroke="#300de7" stroke-linecap="round" stroke-width="3" x1="400" x2="394" y1="191" y2="256"/>
<line stroke="#300de7" stroke-linecap="round" stroke-width="3" x1="232" x2="238" y1="344" y2="412"/>
<line stroke="#300de7" stroke-linecap="round" stroke-width="3" x1="294" x2="238" y1="356" y2="412"/>
<circle cx="277" cy="325" fill="#300de7" r="3"/>
<text fill="#300de7" stroke="none" x="267" y="315">
103
</text>
</svg>