<svg height="620" style="background-color:#F2F3F5" viewBox="0 0 620 620" width="620" xmlns="http://www.w3.org/2000/svg">
<rect fill="#F5F5F5" height="600" stroke="#121212" stroke-width="3" width="600" x="10" y="10"/>
<line stroke="#2658d5" stroke-linecap="round" stroke-width="3" x1="138" x2="10" y1="10" y2="10"/>
<line stroke="#2658d5" stroke-linecap="round" stroke-width="3" x1="138" x2="10" y1="10" y2="10"/>
<line stroke="#2658d5" stroke-linecap="round" stroke-width="3" x1="138" x2="308" y1="10" y2="10"/>
<line stroke="#2658d5" stroke-linecap="round" stroke-width="3" x1="138" x2="308" y1="10" y2="10"/>
<line stroke="#2658d5" stroke-linecap="round" stroke-width="3" x1="10" x2="10" y1="10" y2="10"/>
<line stroke="#2658d5" stroke-linecap="round" stroke-width="3" x1="10" x2="10" y1="10" y2="10"/>
<line stroke="#2658d5" stroke-linecap="round" stroke-width="3" x1="298" x2="288" y1="10" y2="10"/>
<line stroke="#2658d5" stroke-linecap="round" stroke-width="3" x1="298" x2="288" y1="10" y2="10"/>
<line stroke="#2658d5" stroke-linecap="round" stroke-width="3" x1="298" x2="308" y1="10" y2="10"/>
<line stroke="#2658d5" stroke-linecap="round" stroke-width="3" x1="298" x2="308" y1="10" y2="10"/>
<line stroke="#2658d5" stroke-linecap="round" stroke-width="3" x1="308" x2="308" y1="10" y2="10"/>
<line stroke="#2658d5" stroke-linecap="round" stroke-width="3" x1="308" x2="308" y1="10" y2="10"/>
<line stroke="#2658d5" stroke-linecap="round" stroke-width="3" x1="10" x2="10" y1="10" y2="10"/>
<line stroke="#2658d5" stroke-linecap="round" stroke-width="3" x1="10" x2="10" y1="10" y2="10"/>
<line stroke="#2658d5" stroke-linecap="round" stroke-width="3" x1="288" x2="228" y1="10" y2="113"/>
<line stroke="#2658d5" stroke-linecap="round" stroke-width="3" x1="288" x2="228" y1="10" y2="113"/>
<line stroke="#2658d5" stroke-linecap="round" stroke-width="3" x1="308" x2="457" y1="10" y2="10"/>
<line stroke="#2658d5" stroke-linecap="round" stroke-width="3" x1="308" x2="457" y1="10" y2="10"/>
<line stroke="#2658d5" stroke-linecap="round" stroke-width="3" x1="10" x2="10" y1="10" y2="10"/>
<line stroke="#2658d5" stroke-linecap="round" stroke-width="3" x1="10" x2="10" y1="10" y2="10"/>
<line stroke="#2658d5" stroke-linecap="round" stroke-width="3" x1="228" x2="226" y1="113" y2="120"/>
<line stroke="#2658d5" stroke-linecap="round" stroke-width="3" x1="228" x2="226" y1="113" y2="120"/>
<line stroke="#2658d5" stroke-linecap="round" stroke-width="3" x1="342" x2="327" y1="159" y2="180"/>
<line stroke="#2658d5" stroke-linecap="round" stroke-width="3" x1="342" x2="327" y1="159" y2="180"/>
<line stroke="#2658d5" stroke-linecap="round" stroke-width="3" x1="342" x2="367" y1="159" y2="124"/>
<line stroke="#2658d5" stroke-linecap="round" stroke-width="3" x1="342" x2="367" y1="159" y2="124"/>
<line stroke="#2658d5" stroke-linecap="round" stroke-width="3" x1="457" x2="467" y1="10" y2="10"/>
<line stroke="#2658d5" stroke-linecap="round" stroke-width="3" x1="457" x2="467" y1="10" y2="10"/>
<line stroke="#2658d5" stroke-linecap="round" stroke-width="3" x1="10" x2="10" y1="10" y2="10"/>
<line stroke="#2658d5" stroke-linecap="round" stroke-width="3" x1="10" x2="10" y1="10" y2="10"/>
<line stroke="#2658d5" stroke-linecap="round" stroke-width="3" x1="226" x2="223" y1="120" y2="132"/>
<line stroke="#2658d5" stroke-linecap="round" stroke-width="3" x1="226" x2="223" y1="120" y2="132"/>
<line stroke="#2658d5" stroke-linecap="round" stroke-width="3" x1="327" x2="319" y1="180" y2="190"/>
<line stroke="#2658d5" stroke-linecap="round" stroke-width="3" x1="327" x2="319" y1="180" y2="190"/>
<line stroke="#2658d5" stroke-linecap="round" stroke-width="3" x1="367" x2="397" y1="124" y2="83"/>
<line stroke="#2658d5" stroke-linecap="round" stroke-width="3" x1="367" x2="397" y1="124" y2="83"/>
<line stroke="#2658d5" stroke-linecap="round" stroke-width="3" x1="450" x2="402" y1="10" y2="72"/>
<line stroke="#2658d5" stroke-linecap="round" stroke-width="3" x1="450" x2="402" y1="10" y2="72"/>
<line stroke="#2658d5" stroke-linecap="round" stroke-width="3" x1="450" x2="565" y1="10" y2="10"/>
<line stroke="#2658d5" stroke-linecap="round" stroke-width="3" x1="450" x2="565" y1="10" y2="10"/>
<line stroke="#2658d5" stroke-linecap="round" stroke-width="3" x1="467" x2="485" y1="10" y2="10"/>
<line stroke="#2658d5" stroke-linecap="round" stroke-width="3" x1="467" x2="485" y1="10" y2="10"/>
<line stroke="#2658d5" stroke-linecap="round" stroke-width="3" x1="10" x2="10" y1="10" y2="10"/>
<line stroke="#2658d5" stroke-linecap="round" stroke-width="3" x1="10" x2="10" y1="10" y2="10"/>
<line stroke="#2658d5" stroke-linecap="round" stroke-width="3" x1="222" x2="222" y1="134" y2="134"/>
<line stroke="#2658d5" stroke-linecap="round" stroke-width="3" x1="222" x2="222" y1="134" y2="134"/>
<line stroke="#2658d5" stroke-linecap="round" stroke-width="3" x1="222" x2="222" y1="134" y2="134"/>
<line stroke="#2658d5" stroke-linecap="round" stroke-width="3" x1="222" x2="222" y1="134" y2="134"/>
<line stroke="#2658d5" stroke-linecap="round" stroke-width="3" x1="223" x2="223" y1="132" y2="132"/>
<line stroke="#2658d5" stroke-linecap="round" stroke-width="3" x1="223" x2="223" y1="132" y2="132"/>
<line stroke="#2658d5" stroke-linecap="round" stroke-width="3" x1="319" x2="319" y1="190" y2="190"/>
<line stroke="#2658d5" stroke-linecap="round" stroke-width="3" x1="319" x2="319" y1="190" y2="190"/>
<line stroke="#2658d5" stroke-linecap="round" stroke-width="3" x1="397" x2="397" y1="83" y2="83"/>
<line stroke="#2658d5" stroke-linecap="round" stroke-width="3" x1="397" x2="397" y1="83" y2="83"/>
<line stroke="#2658d5" stroke-linecap="round" stroke-width="3" x1="402" x2="402" y1="72" y2="72"/>
<line stroke="#2658d5" stroke-linecap="round" stroke-width="3" x1="402" x2="402" y1="72" y2="72"/>
<line stroke="#2658d5" stroke-linecap="round" stroke-width="3" x1="565" x2="565" y1="10" y2="10"/>
<line stroke="#2658d5" stroke-linecap="round" stroke-width="3" x1="565" x2="565" y1="10" y2="10"/>
<line stroke="#2658d5" stroke-linecap="round" stroke-width="3" x1="485" x2="485" y1="10" y2="10"/>
<line stroke="#2658d5" stroke-linecap="round" stroke-width="3" x1="485" x2="485" y1="10" y2="10"/>
<line stroke="#2658d5" stroke-linecap="round" stroke-width="3" x1="10" x2="10" y1="10" y2="10"/>
<line stroke="#2658d5" stroke-linecap="round" stroke-width="3" x1="10" x2="10" y1="10" y2="10"/>
<line stroke="#2658d5" stroke-linecap="round" stroke-width="3" x1="222" x2="210" y1="134" y2="145"/>
<line stroke="#2658d5" stroke-linecap="round" stroke-width="3" x1="222" x2="210" y1="134" y2="145"/>
<line stroke="#2658d5" stroke-linecap="round" stroke-width="3" x1="222" x2="233" y1="130" y2="149"/>
<line stroke="#2658d5" stroke-linecap="round" stroke-width="3" x1="222" x2="233" y1="130" y2="149"/>
<line stroke="#2658d5" stroke-linecap="round" stroke-width="3" x1="319" x2="318" y1="190" y2="191"/>
<line stroke="#2658d5" stroke-linecap="round" stroke-width="3" x1="319" x2="318" y1="190" y2="191"/>
<line stroke="#2658d5" stroke-linecap="round" stroke-width="3" x1="401" x2="400" y1="65" y2="78"/>
<line stroke="#2658d5" stroke-linecap="round" stroke-width="3" x1="401" x2="400" y1="65" y2="78"/>
<line stroke="#2658d5" stroke-linecap="round" stroke-width="3" x1="565" x2="574" y1="10" y2="10"/>
<line stroke="#2658d5" stroke-linecap="round" stroke-width="3" x1="565" x2="574" y1="10" y2="10"/>
<line stroke="#2658d5" stroke-linecap="round" stroke-width="3" x1="485" x2="487" y1="10" y2="10"/>
<line stroke="#2658d5" stroke-linecap="round" stroke-width="3" x1="485" x2="487" y1="10" y2="10"/>
<line stroke="#2658d5" stroke-linecap="round" stroke-width="3" x1="10" x2="10" y1="10" y2="10"/>
<line stroke="#2658d5" stroke-linecap="round" stroke-width="3" x1="10" x2="10" y1="10" y2="10"/>
<line stroke="#2658d5" stroke-linecap="round" stroke-width="3" x1="223" x2="223" y1="133" y2="133"/>
<line stroke="#2658d5" stroke-linecap="round" stroke-width="3" x1="223" x2="223" y1="133" y2="133"/>
<line stroke="#2658d5" stroke-linecap="round" stroke-width="3" x1="318" x2="318" y1="191" y2="191"/>
<line stroke="#2658d5" stroke-linecap="round" stroke-width="3" x1="318" x2="318" y1="191" y2="191"/>
<line stroke="#2658d5" stroke-linecap="round" stroke-width="3" x1="400" x2="400" y1="78" y2="78"/>
<line stroke="#2658d5" stroke-linecap="round" stroke-width="3" x1="400" x2="400" y1="78" y2="78"/>
<line stroke="#2658d5" stroke-linecap="round" stroke-width="3" x1="574" x2="574" y1="10" y2="10"/>
<line stroke="#2658d5" stroke-linecap="round" stroke-width="3" x1="574" x2="574" y1="10" y2="10"/>
<line stroke="#2658d5" stroke-linecap="round" stroke-width="3" x1="487" x2="487" y1="10" y2="10"/>
<line stroke="#2658d5" stroke-linecap="round" stroke-width="3" x1="487" x2="487" y1="10" y2="10"/>
<line stroke="#2658d5" stroke-linecap="round" stroke-width="3" x1="10" x2="10" y1="10" y2="10"/>
<line stroke="#2658d5" stroke-linecap="round" stroke-width="3" x1="10" x2="10" y1="10" y2="10"/>
<line stroke="#2658d5" stroke-linecap="round" stroke-width="3" x1="223" x2="216" y1="133" y2="159"/>
<line stroke="#2658d5" stroke-linecap="round" stroke-width="3" x1="223" x2="216" y1="133" y2="159"/>
<line stroke="#2658d5" stroke-linecap="round" stroke-width="3" x1="318" x2="307" y1="191" y2="207"/>
<line stroke="#2658d5" stroke-linecap="round" stroke-width="3" x1="318" x2="307" y1="191" y2="207"/>
<line stroke="#2658d5" stroke-linecap="round" stroke-width="3" x1="400" x2="396" y1="78" y2="182"/>
<line stroke="#2658d5" stroke-linecap="round" stroke-width="3" x1="400" x2="396" y1="78" y2="182"/>
<line stroke="#2658d5" stroke-linecap="round" stroke-width="3" x1="574" x2="787" y1="10" y2="10"/>
<line stroke="#2658d5" stroke-linecap="round" stroke-width="3" x1="574" x2="787" y1="10" y2="10"/>
<line stroke="#2658d5" stroke-linecap="round" stroke-width="3" x1="487" x2="534" y1="10" y2="10"/>
<line stroke="#2658d5" stroke-linecap="round" stroke-width="3" x1="487" x2="534" y1="10" y2="10"/>
<line stroke="#2658d5" stroke-linecap="round" stroke-width="3" x1="10" x2="10" y1="10" y2="10"/>
<line stroke="#2658d5" stroke-linecap="round" stroke-width="3" x1="10" x2="10" y1="10" y2="10"/>
<line stroke="#2658d5" stroke-linecap="round" stroke-width="3" x1="216" x2="216" y1="159" y2="160"/>
<line stroke="#2658d5" stroke-linecap="round" stroke-width="3" x1="216" x2="216" y1="159" y2="160"/>
<line stroke="#2658d5" stroke-linecap="round" stroke-width="3" x1="307" x2="307" y1="207" y2="207"/>
<line stroke="#2658d5" stroke-linecap="round" stroke-width="3" x1="307" x2="307" y1="207" y2="207"/>
<line stroke="#2658d5" stroke-linecap="round" stroke-width="3" x1="396" x2="396" y1="182" y2="183"/>
<line stroke="#2658d5" stroke-linecap="round" stroke-width="3" x1="396" x2="396" y1="182" y2="183"/>
<line stroke="#2658d5" stroke-linecap="round" stroke-width="3" x1="406" x2="396" y1="195" y2="183"/>
<line stroke="#2658d5" stroke-linecap="round" stroke-width="3" x1="406" x2="396" y1="195" y2="183"/>
<line stroke="#2658d5" stroke-linecap="round" stroke-width="3" x1="406" x2="413" y1="195" y2="205"/>
<line stroke="#2658d5" stroke-linecap="round" stroke-width="3" x1="406" x2="413" y1="195" y2="205"/>
<line stroke="#2658d5" stroke-linecap="round" stroke-width="3" x1="787" x2="793" y1="10" y2="10"/>
<line stroke="#2658d5" stroke-linecap="round" stroke-width="3" x1="787" x2="793" y1="10" y2="10"/>
<line stroke="#2658d5" stroke-linecap="round" stroke-width="3" x1="534" x2="536" y1="10" y2="10"/>
<line stroke="#2658d5" stroke-linecap="round" stroke-width="3" x1="534" x2="536" y1="10" y2="10"/>
<line stroke="#2658d5" stroke-linecap="round" stroke-width="3" x1="10" x2="10" y1="10" y2="10"/>
<line stroke="#2658d5" stroke-linecap="round" stroke-width="3" x1="10" x2="10" y1="10" y2="10"/>
<line stroke="#2658d5" stroke-linecap="round" stroke-width="3" x1="216" x2="215" y1="160" y2="162"/>
<line stroke="#2658d5" stroke-linecap="round" stroke-width="3" x1="216" x2="215" y1="160" y2="162"/>
<line stroke="#2658d5" stroke-linecap="round" stroke-width="3" x1="307" x2="305" y1="207" y2="209"/>
<line stroke="#2658d5" stroke-linecap="round" stroke-width="3" x1="307" x2="305" y1="207" y2="209"/>
<line stroke="#2658d5" stroke-linecap="round" stroke-width="3" x1="396" x2="387" y1="183" y2="199"/>
<line stroke="#2658d5" stroke-linecap="round" stroke-width="3" x1="396" x2="387" y1="183" y2="199"/>
<line stroke="#2658d5" stroke-linecap="round" stroke-width="3" x1="413" x2="420" y1="205" y2="215"/>
<line stroke="#2658d5" stroke-linecap="round" stroke-width="3" x1="413" x2="420" y1="205" y2="215"/>
<line stroke="#2658d5" stroke-linecap="round" stroke-width="3" x1="793" x2="820" y1="10" y2="10"/>
<line stroke="#2658d5" stroke-linecap="round" stroke-width="3" x1="793" x2="820" y1="10" y2="10"/>
<line stroke="#2658d5" stroke-linecap="round" stroke-width="3" x1="536" x2="541" y1="10" y2="10"/>
<line stroke="#2658d5" stroke-linecap="round" stroke-width="3" x1="536" x2="541" y1="10" y2="10"/>
<line stroke="#2658d5" stroke-linecap="round" stroke-width="3" x1="10" x2="10" y1="10" y2="10"/>
<line stroke="#2658d5" stroke-linecap="round" stroke-width="3" x1="10" x2="10" y1="10" y2="10"/>
<line stroke="#2658d5" stroke-linecap="round" stroke-width="3" x1="215" x2="213" y1="162" y2="173"/>
<line stroke="#2658d5" stroke-linecap="round" stroke-width="3" x1="215" x2="213" y1="162" y2="173"/>
<line stroke="#2658d5" stroke-linecap="round" stroke-width="3" x1="305" x2="301" y1="209" y2="215"/>
<line stroke="#2658d5" stroke-linecap="round" stroke-width="3" x1="305" x2="301" y1="209" y2="215"/>
<line stroke="#2658d5" stroke-linecap="round" stroke-width="3" x1="396" x2="396" y1="188" y2="203"/>
<line stroke="#2658d5" stroke-linecap="round" stroke-width="3" x1="396" x2="396" y1="188" y2="203"/>
<line stroke="#2658d5" stroke-linecap="round" stroke-width="3" x1="820" x2="928" y1="10" y2="10"/>
<line stroke="#2658d5" stroke-linecap="round" stroke-width="3" x1="820" x2="928" y1="10" y2="10"/>
<line stroke="#2658d5" stroke-linecap="round" stroke-width="3" x1="541" x2="563" y1="10" y2="10"/>
<line stroke="#2658d5" stroke-linecap="round" stroke-width="3" x1="541" x2="563" y1="10" y2="10"/>
<line stroke="#2658d5" stroke-linecap="round" stroke-width="3" x1="10" x2="10" y1="10" y2="10"/>
<line stroke="#2658d5" stroke-linecap="round" stroke-width="3" x1="10" x2="10" y1="10" y2="10"/>
<line stroke="#2658d5" stroke-linecap="round" stroke-width="3" x1="213" x2="211" y1="173" y2="180"/>
<line stroke="#2658d5" stroke-linecap="round" stroke-width="3" x1="213" x2="211" y1="173" y2="180"/>
<line stroke="#2658d5" stroke-linecap="round" stroke-width="3" x1="270" x2="236" y1="211" y2="200"/>
<line stroke="#2658d5" stroke-linecap="round" stroke-width="3" x1="270" x2="236" y1="211" y2="200"/>
<line stroke="#2658d5" stroke-linecap="round" stroke-width="3" x1="270" x2="297" y1="211" y2="220"/>
<line stroke="#2658d5" stroke-linecap="round" stroke-width="3" x1="270" x2="297" y1="211" y2="220"/>
<line stroke="#2658d5" stroke-linecap="round" stroke-width="3" x1="301" x2="297" y1="215" y2="220"/>
<line stroke="#2658d5" stroke-linecap="round" stroke-width="3" x1="301" x2="297" y1="215" y2="220"/>
<line stroke="#2658d5" stroke-linecap="round" stroke-width="3" x1="396" x2="395" y1="203" y2="212"/>
<line stroke="#2658d5" stroke-linecap="round" stroke-width="3" x1="396" x2="395" y1="203" y2="212"/>
<line stroke="#2658d5" stroke-linecap="round" stroke-width="3" x1="928" x2="1008" y1="10" y2="10"/>
<line stroke="#2658d5" stroke-linecap="round" stroke-width="3" x1="928" x2="1008" y1="10" y2="10"/>
<line stroke="#2658d5" stroke-linecap="round" stroke-width="3" x1="563" x2="579" y1="10" y2="10"/>
<line stroke="#2658d5" stroke-linecap="round" stroke-width="3" x1="563" x2="579" y1="10" y2="10"/>
<line stroke="#2658d5" stroke-linecap="round" stroke-width="3" x1="10" x2="10" y1="10" y2="10"/>
<line stroke="#2658d5" stroke-linecap="round" stroke-width="3" x1="10" x2="10" y1="10" y2="10"/>
<line stroke="#2658d5" stroke-linecap="round" stroke-width="3" x1="228" x2="212" y1="169" y2="186"/>
<line stroke="#2658d5" stroke-linecap="round" stroke-width="3" x1="228" x2="212" y1="169" y2="186"/>
<line stroke="#2658d5" stroke-linecap="round" stroke-width="3" x1="297" x2="307" y1="220" y2="233"/>
<line stroke="#2658d5" stroke-linecap="round" stroke-width="3" x1="297" x2="307" y1="220" y2="233"/>
<line stroke="#2658d5" stroke-linecap="round" stroke-width="3" x1="395" x2="395" y1="212" y2="222"/>
<line stroke="#2658d5" stroke-linecap="round" stroke-width="3" x1="395" x2="395" y1="212" y2="222"/>
<line stroke="#2658d5" stroke-linecap="round" stroke-width="3" x1="1008" x2="1102" y1="10" y2="10"/>
<line stroke="#2658d5" stroke-linecap="round" stroke-width="3" x1="1008" x2="1102" y1="10" y2="10"/>
<line stroke="#2658d5" stroke-linecap="round" stroke-width="3" x1="579" x2="596" y1="10" y2="10"/>
<line stroke="#2658d5" stroke-linecap="round" stroke-width="3" x1="579" x2="596" y1="10" y2="10"/>
<line stroke="#2658d5" stroke-linecap="round" stroke-width="3" x1="10" x2="10" y1="10" y2="10"/>
<line stroke="#2658d5" stroke-linecap="round" stroke-width="3" x1="10" x2="10" y1="10" y2="10"/>
<line stroke="#2658d5" stroke-linecap="round" stroke-width="3" x1="190" x2="171" y1="196" y2="203"/>
<line stroke="#2658d5" stroke-linecap="round" stroke-width="3" x1="190" x2="171" y1="196" y2="203"/>
<line stroke="#2658d5" stroke-linecap="round" stroke-width="3" x1="190" x2="210" y1="196" y2="189"/>
<line stroke="#2658d5" stroke-linecap="round" stroke-width="3" x1="190" x2="210" y1="196" y2="189"/>
<line stroke="#2658d5" stroke-linecap="round" stroke-width="3" x1="212" x2="210" y1="186" y2="189"/>
<line stroke="#2658d5" stroke-linecap="round" stroke-width="3" x1="212" x2="210" y1="186" y2="189"/>
<line stroke="#2658d5" stroke-linecap="round" stroke-width="3" x1="307" x2="308" y1="233" y2="235"/>
<line stroke="#2658d5" stroke-linecap="round" stroke-width="3" x1="307" x2="308" y1="233" y2="235"/>
<line stroke="#2658d5" stroke-linecap="round" stroke-width="3" x1="395" x2="395" y1="222" y2="223"/>
<line stroke="#2658d5" stroke-linecap="round" stroke-width="3" x1="395" x2="395" y1="222" y2="223"/>
<line stroke="#2658d5" stroke-linecap="round" stroke-width="3" x1="1102" x2="1121" y1="10" y2="10"/>
<line stroke="#2658d5" stroke-linecap="round" stroke-width="3" x1="1102" x2="1121" y1="10" y2="10"/>
<line stroke="#2658d5" stroke-linecap="round" stroke-width="3" x1="596" x2="600" y1="10" y2="10"/>
<line stroke="#2658d5" stroke-linecap="round" stroke-width="3" x1="596" x2="600" y1="10" y2="10"/>
<line stroke="#2658d5" stroke-linecap="round" stroke-width="3" x1="10" x2="10" y1="10" y2="10"/>
<line stroke="#2658d5" stroke-linecap="round" stroke-width="3" x1="10" x2="10" y1="10" y2="10"/>
<line stroke="#2658d5" stroke-linecap="round" stroke-width="3" x1="171" x2="141" y1="203" y2="213"/>
<line stroke="#2658d5" stroke-linecap="round" stroke-width="3" x1="171" x2="141" y1="203" y2="213"/>
<line stroke="#2658d5" stroke-linecap="round" stroke-width="3" x1="210" x2="224" y1="189" y2="247"/>
<line stroke="#2658d5" stroke-linecap="round" stroke-width="3" x1="210" x2="224" y1="189" y2="247"/>
<line stroke="#2658d5" stroke-linecap="round" stroke-width="3" x1="308" x2="316" y1="235" y2="246"/>
<line stroke="#2658d5" stroke-linecap="round" stroke-width="3" x1="308" x2="316" y1="235" y2="246"/>
<line stroke="#2658d5" stroke-linecap="round" stroke-width="3" x1="395" x2="395" y1="223" y2="234"/>
<line stroke="#2658d5" stroke-linecap="round" stroke-width="3" x1="395" x2="395" y1="223" y2="234"/>
<line stroke="#2658d5" stroke-linecap="round" stroke-width="3" x1="1121" x2="1240" y1="10" y2="10"/>
<line stroke="#2658d5" stroke-linecap="round" stroke-width="3" x1="1121" x2="1240" y1="10" y2="10"/>
<line stroke="#2658d5" stroke-linecap="round" stroke-width="3" x1="600" x2="621" y1="10" y2="10"/>
<line stroke="#2658d5" stroke-linecap="round" stroke-width="3" x1="600" x2="621" y1="10" y2="10"/>
<line stroke="#2658d5" stroke-linecap="round" stroke-width="3" x1="10" x2="10" y1="10" y2="10"/>
<line stroke="#2658d5" stroke-linecap="round" stroke-width="3" x1="10" x2="10" y1="10" y2="10"/>
<line stroke="#2658d5" stroke-linecap="round" stroke-width="3" x1="141" x2="131" y1="213" y2="217"/>
<line stroke="#2658d5" stroke-linecap="round" stroke-width="3" x1="141" x2="131" y1="213" y2="217"/>
<line stroke="#2658d5" stroke-linecap="round" stroke-width="3" x1="224" x2="227" y1="247" y2="259"/>
<line stroke="#2658d5" stroke-linecap="round" stroke-width="3" x1="224" x2="227" y1="247" y2="259"/>
<line stroke="#2658d5" stroke-linecap="round" stroke-width="3" x1="316" x2="319" y1="246" y2="251"/>
<line stroke="#2658d5" stroke-linecap="round" stroke-width="3" x1="316" x2="319" y1="246" y2="251"/>
<line stroke="#2658d5" stroke-linecap="round" stroke-width="3" x1="346" x2="319" y1="249" y2="251"/>
<line stroke="#2658d5" stroke-linecap="round" stroke-width="3" x1="346" x2="319" y1="249" y2="251"/>
<line stroke="#2658d5" stroke-linecap="round" stroke-width="3" x1="346" x2="372" y1="249" y2="248"/>
<line stroke="#2658d5" stroke-linecap="round" stroke-width="3" x1="346" x2="372" y1="249" y2="248"/>
<line stroke="#2658d5" stroke-linecap="round" stroke-width="3" x1="395" x2="394" y1="234" y2="239"/>
<line stroke="#2658d5" stroke-linecap="round" stroke-width="3" x1="395" x2="394" y1="234" y2="239"/>
<line stroke="#2658d5" stroke-linecap="round" stroke-width="3" x1="1240" x2="1303" y1="10" y2="10"/>
<line stroke="#2658d5" stroke-linecap="round" stroke-width="3" x1="1240" x2="1303" y1="10" y2="10"/>
<line stroke="#2658d5" stroke-linecap="round" stroke-width="3" x1="621" x2="632" y1="10" y2="10"/>
<line stroke="#2658d5" stroke-linecap="round" stroke-width="3" x1="621" x2="632" y1="10" y2="10"/>
<line stroke="#2658d5" stroke-linecap="round" stroke-width="3" x1="10" x2="10" y1="10" y2="10"/>
<line stroke="#2658d5" stroke-linecap="round" stroke-width="3" x1="10" x2="10" y1="10" y2="10"/>
<line stroke="#2658d5" stroke-linecap="round" stroke-width="3" x1="131" x2="105" y1="217" y2="227"/>
<line stroke="#2658d5" stroke-linecap="round" stroke-width="3" x1="131" x2="105" y1="217" y2="227"/>
<line stroke="#2658d5" stroke-linecap="round" stroke-width="3" x1="227" x2="233" y1="259" y2="282"/>
<line stroke="#2658d5" stroke-linecap="round" stroke-width="3" x1="227" x2="233" y1="259" y2="282"/>
<line stroke="#2658d5" stroke-linecap="round" stroke-width="3" x1="319" x2="304" y1="251" y2="283"/>
<line stroke="#2658d5" stroke-linecap="round" stroke-width="3" x1="319" x2="304" y1="251" y2="283"/>
<line stroke="#2658d5" stroke-linecap="round" stroke-width="3" x1="378" x2="403" y1="227" y2="258"/>
<line stroke="#2658d5" stroke-linecap="round" stroke-width="3" x1="378" x2="403" y1="227" y2="258"/>
<line stroke="#2658d5" stroke-linecap="round" stroke-width="3" x1="1303" x2="1515" y1="10" y2="10"/>
<line stroke="#2658d5" stroke-linecap="round" stroke-width="3" x1="1303" x2="1515" y1="10" y2="10"/>
<line stroke="#2658d5" stroke-linecap="round" stroke-width="3" x1="632" x2="668" y1="10" y2="10"/>
<line stroke="#2658d5" stroke-linecap="round" stroke-width="3" x1="632" x2="668" y1="10" y2="10"/>
<line stroke="#2658d5" stroke-linecap="round" stroke-width="3" x1="10" x2="10" y1="10" y2="10"/>
<line stroke="#2658d5" stroke-linecap="round" stroke-width="3" x1="10" x2="10" y1="10" y2="10"/>
<line stroke="#2658d5" stroke-linecap="round" stroke-width="3" x1="105" x2="98" y1="227" y2="229"/>
<line stroke="#2658d5" stroke-linecap="round" stroke-width="3" x1="105" x2="98" y1="227" y2="229"/>
<line stroke="#2658d5" stroke-linecap="round" stroke-width="3" x1="233" x2="234" y1="282" y2="287"/>
<line stroke="#2658d5" stroke-linecap="round" stroke-width="3" x1="233" x2="234" y1="282" y2="287"/>
<line stroke="#2658d5" stroke-linecap="round" stroke-width="3" x1="278" x2="255" y1="291" y2="294"/>
<line stroke="#2658d5" stroke-linecap="round" stroke-width="3" x1="278" x2="255" y1="291" y2="294"/>
<line stroke="#2658d5" stroke-linecap="round" stroke-width="3" x1="278" x2="301" y1="291" y2="288"/>
<line stroke="#2658d5" stroke-linecap="round" stroke-width="3" x1="278" x2="301" y1="291" y2="288"/>
<line stroke="#2658d5" stroke-linecap="round" stroke-width="3" x1="304" x2="301" y1="283" y2="288"/>
<line stroke="#2658d5" stroke-linecap="round" stroke-width="3" x1="304" x2="301" y1="283" y2="288"/>
<line stroke="#2658d5" stroke-linecap="round" stroke-width="3" x1="403" x2="407" y1="258" y2="264"/>
<line stroke="#2658d5" stroke-linecap="round" stroke-width="3" x1="403" x2="407" y1="258" y2="264"/>
<line stroke="#2658d5" stroke-linecap="round" stroke-width="3" x1="1515" x2="1576" y1="10" y2="10"/>
<line stroke="#2658d5" stroke-linecap="round" stroke-width="3" x1="1515" x2="1576" y1="10" y2="10"/>
<line stroke="#2658d5" stroke-linecap="round" stroke-width="3" x1="668" x2="678" y1="10" y2="10"/>
<line stroke="#2658d5" stroke-linecap="round" stroke-width="3" x1="668" x2="678" y1="10" y2="10"/>
<line stroke="#2658d5" stroke-linecap="round" stroke-width="3" x1="10" x2="10" y1="10" y2="10"/>
<line stroke="#2658d5" stroke-linecap="round" stroke-width="3" x1="10" x2="10" y1="10" y2="10"/>
<line stroke="#2658d5" stroke-linecap="round" stroke-width="3" x1="98" x2="97" y1="229" y2="229"/>
<line stroke="#2658d5" stroke-linecap="round" stroke-width="3" x1="98" x2="97" y1="229" y2="229"/>
<line stroke="#2658d5" stroke-linecap="round" stroke-width="3" x1="249" x2="248" y1="273" y2="275"/>
<line stroke="#2658d5" stroke-linecap="round" stroke-width="3" x1="249" x2="248" y1="273" y2="275"/>
<line stroke="#2658d5" stroke-linecap="round" stroke-width="3" x1="301" x2="303" y1="288" y2="290"/>
<line stroke="#2658d5" stroke-linecap="round" stroke-width="3" x1="301" x2="303" y1="288" y2="290"/>
<line stroke="#2658d5" stroke-linecap="round" stroke-width="3" x1="407" x2="408" y1="264" y2="265"/>
<line stroke="#2658d5" stroke-linecap="round" stroke-width="3" x1="407" x2="408" y1="264" y2="265"/>
<line stroke="#2658d5" stroke-linecap="round" stroke-width="3" x1="1576" x2="1584" y1="10" y2="10"/>
<line stroke="#2658d5" stroke-linecap="round" stroke-width="3" x1="1576" x2="1584" y1="10" y2="10"/>
<line stroke="#2658d5" stroke-linecap="round" stroke-width="3" x1="678" x2="680" y1="10" y2="10"/>
<line stroke="#2658d5" stroke-linecap="round" stroke-width="3" x1="678" x2="680" y1="10" y2="10"/>
<line stroke="#2658d5" stroke-linecap="round" stroke-width="3" x1="10" x2="10" y1="10" y2="10"/>
<line stroke="#2658d5" stroke-linecap="round" stroke-width="3" x1="10" x2="10" y1="10" y2="10"/>
<line stroke="#2658d5" stroke-linecap="round" stroke-width="3" x1="97" x2="86" y1="229" y2="233"/>
<line stroke="#2658d5" stroke-linecap="round" stroke-width="3" x1="97" x2="86" y1="229" y2="233"/>
<line stroke="#2658d5" stroke-linecap="round" stroke-width="3" x1="190" x2="161" y1="306" y2="306"/>
<line stroke="#2658d5" stroke-linecap="round" stroke-width="3" x1="190" x2="161" y1="306" y2="306"/>
<line stroke="#2658d5" stroke-linecap="round" stroke-width="3" x1="190" x2="218" y1="306" y2="306"/>
<line stroke="#2658d5" stroke-linecap="round" stroke-width="3" x1="190" x2="218" y1="306" y2="306"/>
<line stroke="#2658d5" stroke-linecap="round" stroke-width="3" x1="248" x2="237" y1="275" y2="295"/>
<line stroke="#2658d5" stroke-linecap="round" stroke-width="3" x1="248" x2="237" y1="275" y2="295"/>
<line stroke="#2658d5" stroke-linecap="round" stroke-width="3" x1="303" x2="311" y1="290" y2="308"/>
<line stroke="#2658d5" stroke-linecap="round" stroke-width="3" x1="303" x2="311" y1="290" y2="308"/>
<line stroke="#2658d5" stroke-linecap="round" stroke-width="3" x1="408" x2="415" y1="265" y2="273"/>
<line stroke="#2658d5" stroke-linecap="round" stroke-width="3" x1="408" x2="415" y1="265" y2="273"/>
<line stroke="#2658d5" stroke-linecap="round" stroke-width="3" x1="1584" x2="1687" y1="10" y2="10"/>
<line stroke="#2658d5" stroke-linecap="round" stroke-width="3" x1="1584" x2="1687" y1="10" y2="10"/>
<line stroke="#2658d5" stroke-linecap="round" stroke-width="3" x1="680" x2="696" y1="10" y2="10"/>
<line stroke="#2658d5" stroke-linecap="round" stroke-width="3" x1="680" x2="696" y1="10" y2="10"/>
<line stroke="#2658d5" stroke-linecap="round" stroke-width="3" x1="10" x2="10" y1="10" y2="10"/>
<line stroke="#2658d5" stroke-linecap="round" stroke-width="3" x1="10" x2="10" y1="10" y2="10"/>
<line stroke="#2658d5" stroke-linecap="round" stroke-width="3" x1="86" x2="80" y1="233" y2="236"/>
<line stroke="#2658d5" stroke-linecap="round" stroke-width="3" x1="86" x2="80" y1="233" y2="236"/>
<line stroke="#2658d5" stroke-linecap="round" stroke-width="3" x1="161" x2="152" y1="306" y2="306"/>
<line stroke="#2658d5" stroke-linecap="round" stroke-width="3" x1="161" x2="152" y1="306" y2="306"/>
<line stroke="#2658d5" stroke-linecap="round" stroke-width="3" x1="218" x2="227" y1="306" y2="306"/>
<line stroke="#2658d5" stroke-linecap="round" stroke-width="3" x1="218" x2="227" y1="306" y2="306"/>
<line stroke="#2658d5" stroke-linecap="round" stroke-width="3" x1="237" x2="233" y1="295" y2="302"/>
<line stroke="#2658d5" stroke-linecap="round" stroke-width="3" x1="237" x2="233" y1="295" y2="302"/>
<line stroke="#2658d5" stroke-linecap="round" stroke-width="3" x1="311" x2="314" y1="308" y2="315"/>
<line stroke="#2658d5" stroke-linecap="round" stroke-width="3" x1="311" x2="314" y1="308" y2="315"/>
<line stroke="#2658d5" stroke-linecap="round" stroke-width="3" x1="415" x2="419" y1="273" y2="278"/>
<line stroke="#2658d5" stroke-linecap="round" stroke-width="3" x1="415" x2="419" y1="273" y2="278"/>
<line stroke="#2658d5" stroke-linecap="round" stroke-width="3" x1="498" x2="466" y1="269" y2="280"/>
<line stroke="#2658d5" stroke-linecap="round" stroke-width="3" x1="498" x2="466" y1="269" y2="280"/>
<line stroke="#2658d5" stroke-linecap="round" stroke-width="3" x1="498" x2="534" y1="269" y2="256"/>
<line stroke="#2658d5" stroke-linecap="round" stroke-width="3" x1="498" x2="534" y1="269" y2="256"/>
<line stroke="#2658d5" stroke-linecap="round" stroke-width="3" x1="1687" x2="1748" y1="10" y2="10"/>
<line stroke="#2658d5" stroke-linecap="round" stroke-width="3" x1="1687" x2="1748" y1="10" y2="10"/>
<line stroke="#2658d5" stroke-linecap="round" stroke-width="3" x1="696" x2="706" y1="10" y2="10"/>
<line stroke="#2658d5" stroke-linecap="round" stroke-width="3" x1="696" x2="706" y1="10" y2="10"/>
<line stroke="#2658d5" stroke-linecap="round" stroke-width="3" x1="10" x2="10" y1="10" y2="10"/>
<line stroke="#2658d5" stroke-linecap="round" stroke-width="3" x1="10" x2="10" y1="10" y2="10"/>
<line stroke="#2658d5" stroke-linecap="round" stroke-width="3" x1="80" x2="77" y1="236" y2="237"/>
<line stroke="#2658d5" stroke-linecap="round" stroke-width="3" x1="80" x2="77" y1="236" y2="237"/>
<line stroke="#2658d5" stroke-linecap="round" stroke-width="3" x1="152" x2="148" y1="306" y2="305"/>
<line stroke="#2658d5" stroke-linecap="round" stroke-width="3" x1="152" x2="148" y1="306" y2="305"/>
<line stroke="#2658d5" stroke-linecap="round" stroke-width="3" x1="231" x2="231" y1="299" y2="305"/>
<line stroke="#2658d5" stroke-linecap="round" stroke-width="3" x1="231" x2="231" y1="299" y2="305"/>
<line stroke="#2658d5" stroke-linecap="round" stroke-width="3" x1="314" x2="315" y1="315" y2="317"/>
<line stroke="#2658d5" stroke-linecap="round" stroke-width="3" x1="314" x2="315" y1="315" y2="317"/>
<line stroke="#2658d5" stroke-linecap="round" stroke-width="3" x1="455" x2="449" y1="222" y2="238"/>
<line stroke="#2658d5" stroke-linecap="round" stroke-width="3" x1="455" x2="449" y1="222" y2="238"/>
<line stroke="#2658d5" stroke-linecap="round" stroke-width="3" x1="534" x2="542" y1="256" y2="253"/>
<line stroke="#2658d5" stroke-linecap="round" stroke-width="3" x1="534" x2="542" y1="256" y2="253"/>
<line stroke="#2658d5" stroke-linecap="round" stroke-width="3" x1="1748" x2="1776" y1="10" y2="10"/>
<line stroke="#2658d5" stroke-linecap="round" stroke-width="3" x1="1748" x2="1776" y1="10" y2="10"/>
<line stroke="#2658d5" stroke-linecap="round" stroke-width="3" x1="706" x2="710" y1="10" y2="10"/>
<line stroke="#2658d5" stroke-linecap="round" stroke-width="3" x1="706" x2="710" y1="10" y2="10"/>
<line stroke="#2658d5" stroke-linecap="round" stroke-width="3" x1="10" x2="10" y1="10" y2="10"/>
<line stroke="#2658d5" stroke-linecap="round" stroke-width="3" x1="10" x2="10" y1="10" y2="10"/>
<line stroke="#2658d5" stroke-linecap="round" stroke-width="3" x1="77" x2="63" y1="237" y2="242"/>
<line stroke="#2658d5" stroke-linecap="round" stroke-width="3" x1="77" x2="63" y1="237" y2="242"/>
<line stroke="#2658d5" stroke-linecap="round" stroke-width="3" x1="148" x2="128" y1="305" y2="306"/>
<line stroke="#2658d5" stroke-linecap="round" stroke-width="3" x1="148" x2="128" y1="305" y2="306"/>
<line stroke="#2658d5" stroke-linecap="round" stroke-width="3" x1="231" x2="233" y1="305" y2="329"/>
<line stroke="#2658d5" stroke-linecap="round" stroke-width="3" x1="231" x2="233" y1="305" y2="329"/>
<line stroke="#2658d5" stroke-linecap="round" stroke-width="3" x1="315" x2="321" y1="317" y2="330"/>
<line stroke="#2658d5" stroke-linecap="round" stroke-width="3" x1="315" x2="321" y1="317" y2="330"/>
<line stroke="#2658d5" stroke-linecap="round" stroke-width="3" x1="449" x2="433" y1="238" y2="286"/>
<line stroke="#2658d5" stroke-linecap="round" stroke-width="3" x1="449" x2="433" y1="238" y2="286"/>
<line stroke="#2658d5" stroke-linecap="round" stroke-width="3" x1="542" x2="579" y1="253" y2="240"/>
<line stroke="#2658d5" stroke-linecap="round" stroke-width="3" x1="542" x2="579" y1="253" y2="240"/>
<line stroke="#2658d5" stroke-linecap="round" stroke-width="3" x1="1776" x2="1928" y1="10" y2="10"/>
<line stroke="#2658d5" stroke-linecap="round" stroke-width="3" x1="1776" x2="1928" y1="10" y2="10"/>
<line stroke="#2658d5" stroke-linecap="round" stroke-width="3" x1="710" x2="734" y1="10" y2="10"/>
<line stroke="#2658d5" stroke-linecap="round" stroke-width="3" x1="710" x2="734" y1="10" y2="10"/>
<line stroke="#2658d5" stroke-linecap="round" stroke-width="3" x1="10" x2="10" y1="10" y2="10"/>
<line stroke="#2658d5" stroke-linecap="round" stroke-width="3" x1="10" x2="10" y1="10" y2="10"/>
<line stroke="#2658d5" stroke-linecap="round" stroke-width="3" x1="63" x2="63" y1="242" y2="242"/>
<line stroke="#2658d5" stroke-linecap="round" stroke-width="3" x1="63" x2="63" y1="242" y2="242"/>
<line stroke="#2658d5" stroke-linecap="round" stroke-width="3" x1="128" x2="127" y1="306" y2="306"/>
<line stroke="#2658d5" stroke-linecap="round" stroke-width="3" x1="128" x2="127" y1="306" y2="306"/>
<line stroke="#2658d5" stroke-linecap="round" stroke-width="3" x1="233" x2="234" y1="329" y2="330"/>
<line stroke="#2658d5" stroke-linecap="round" stroke-width="3" x1="233" x2="234" y1="329" y2="330"/>
<line stroke="#2658d5" stroke-linecap="round" stroke-width="3" x1="321" x2="321" y1="330" y2="330"/>
<line stroke="#2658d5" stroke-linecap="round" stroke-width="3" x1="321" x2="321" y1="330" y2="330"/>
<line stroke="#2658d5" stroke-linecap="round" stroke-width="3" x1="326" x2="321" y1="331" y2="330"/>
<line stroke="#2658d5" stroke-linecap="round" stroke-width="3" x1="326" x2="321" y1="331" y2="330"/>
<line stroke="#2658d5" stroke-linecap="round" stroke-width="3" x1="326" x2="330" y1="331" y2="332"/>
<line stroke="#2658d5" stroke-linecap="round" stroke-width="3" x1="326" x2="330" y1="331" y2="332"/>
<line stroke="#2658d5" stroke-linecap="round" stroke-width="3" x1="433" x2="433" y1="286" y2="286"/>
<line stroke="#2658d5" stroke-linecap="round" stroke-width="3" x1="433" x2="433" y1="286" y2="286"/>
<line stroke="#2658d5" stroke-linecap="round" stroke-width="3" x1="579" x2="580" y1="240" y2="240"/>
<line stroke="#2658d5" stroke-linecap="round" stroke-width="3" x1="579" x2="580" y1="240" y2="240"/>
<line stroke="#2658d5" stroke-linecap="round" stroke-width="3" x1="1928" x2="1930" y1="10" y2="10"/>
<line stroke="#2658d5" stroke-linecap="round" stroke-width="3" x1="1928" x2="1930" y1="10" y2="10"/>
<line stroke="#2658d5" stroke-linecap="round" stroke-width="3" x1="734" x2="734" y1="10" y2="10"/>
<line stroke="#2658d5" stroke-linecap="round" stroke-width="3" x1="734" x2="734" y1="10" y2="10"/>
<line stroke="#2658d5" stroke-linecap="round" stroke-width="3" x1="10" x2="10" y1="10" y2="10"/>
<line stroke="#2658d5" stroke-linecap="round" stroke-width="3" x1="10" x2="10" y1="10" y2="10"/>
<line stroke="#2658d5" stroke-linecap="round" stroke-width="3" x1="63" x2="59" y1="242" y2="243"/>
<line stroke="#2658d5" stroke-linecap="round" stroke-width="3" x1="63" x2="59" y1="242" y2="243"/>
<line stroke="#2658d5" stroke-linecap="round" stroke-width="3" x1="127" x2="123" y1="306" y2="305"/>
<line stroke="#2658d5" stroke-linecap="round" stroke-width="3" x1="127" x2="123" y1="306" y2="305"/>
<line stroke="#2658d5" stroke-linecap="round" stroke-width="3" x1="234" x2="234" y1="330" y2="333"/>
<line stroke="#2658d5" stroke-linecap="round" stroke-width="3" x1="234" x2="234" y1="330" y2="333"/>
<line stroke="#2658d5" stroke-linecap="round" stroke-width="3" x1="321" x2="309" y1="330" y2="342"/>
<line stroke="#2658d5" stroke-linecap="round" stroke-width="3" x1="321" x2="309" y1="330" y2="342"/>
<line stroke="#2658d5" stroke-linecap="round" stroke-width="3" x1="330" x2="344" y1="332" y2="336"/>
<line stroke="#2658d5" stroke-linecap="round" stroke-width="3" x1="330" x2="344" y1="332" y2="336"/>
<line stroke="#2658d5" stroke-linecap="round" stroke-width="3" x1="433" x2="431" y1="286" y2="293"/>
<line stroke="#2658d5" stroke-linecap="round" stroke-width="3" x1="433" x2="431" y1="286" y2="293"/>
<line stroke="#2658d5" stroke-linecap="round" stroke-width="3" x1="580" x2="587" y1="240" y2="237"/>
<line stroke="#2658d5" stroke-linecap="round" stroke-width="3" x1="580" x2="587" y1="240" y2="237"/>
<line stroke="#2658d5" stroke-linecap="round" stroke-width="3" x1="1930" x2="1965" y1="10" y2="10"/>
<line stroke="#2658d5" stroke-linecap="round" stroke-width="3" x1="1930" x2="1965" y1="10" y2="10"/>
<line stroke="#2658d5" stroke-linecap="round" stroke-width="3" x1="734" x2="739" y1="10" y2="10"/>
<line stroke="#2658d5" stroke-linecap="round" stroke-width="3" x1="734" x2="739" y1="10" y2="10"/>
<line stroke="#2658d5" stroke-linecap="round" stroke-width="3" x1="10" x2="10" y1="10" y2="10"/>
<line stroke="#2658d5" stroke-linecap="round" stroke-width="3" x1="10" x2="10" y1="10" y2="10"/>
<line stroke="#2658d5" stroke-linecap="round" stroke-width="3" x1="59" x2="52" y1="243" y2="246"/>
<line stroke="#2658d5" stroke-linecap="round" stroke-width="3" x1="59" x2="52" y1="243" y2="246"/>
<line stroke="#2658d5" stroke-linecap="round" stroke-width="3" x1="123" x2="114" y1="305" y2="306"/>
<line stroke="#2658d5" stroke-linecap="round" stroke-width="3" x1="123" x2="114" y1="305" y2="306"/>
<line stroke="#2658d5" stroke-linecap="round" stroke-width="3" x1="263" x2="265" y1="295" y2="306"/>
<line stroke="#2658d5" stroke-linecap="round" stroke-width="3" x1="263" x2="265" y1="295" y2="306"/>
<line stroke="#2658d5" stroke-linecap="round" stroke-width="3" x1="431" x2="427" y1="293" y2="305"/>
<line stroke="#2658d5" stroke-linecap="round" stroke-width="3" x1="431" x2="427" y1="293" y2="305"/>
<line stroke="#2658d5" stroke-linecap="round" stroke-width="3" x1="587" x2="602" y1="237" y2="232"/>
<line stroke="#2658d5" stroke-linecap="round" stroke-width="3" x1="587" x2="602" y1="237" y2="232"/>
<line stroke="#2658d5" stroke-linecap="round" stroke-width="3" x1="1965" x2="2039" y1="10" y2="10"/>
<line stroke="#2658d5" stroke-linecap="round" stroke-width="3" x1="1965" x2="2039" y1="10" y2="10"/>
<line stroke="#2658d5" stroke-linecap="round" stroke-width="3" x1="739" x2="750" y1="10" y2="10"/>
<line stroke="#2658d5" stroke-linecap="round" stroke-width="3" x1="739" x2="750" y1="10" y2="10"/>
<line stroke="#2658d5" stroke-linecap="round" stroke-width="3" x1="10" x2="10" y1="10" y2="10"/>
<line stroke="#2658d5" stroke-linecap="round" stroke-width="3" x1="10" x2="10" y1="10" y2="10"/>
<line stroke="#2658d5" stroke-linecap="round" stroke-width="3" x1="52" x2="10" y1="246" y2="272"/>
<line stroke="#2658d5" stroke-linecap="round" stroke-width="3" x1="52" x2="10" y1="246" y2="272"/>
<line stroke="#2658d5" stroke-linecap="round" stroke-width="3" x1="114" x2="17" y1="306" y2="306"/>
<line stroke="#2658d5" stroke-linecap="round" stroke-width="3" x1="114" x2="17" y1="306" y2="306"/>
<line stroke="#2658d5" stroke-linecap="round" stroke-width="3" x1="265" x2="284" y1="306" y2="377"/>
<line stroke="#2658d5" stroke-linecap="round" stroke-width="3" x1="265" x2="284" y1="306" y2="377"/>
<line stroke="#2658d5" stroke-linecap="round" stroke-width="3" x1="427" x2="401" y1="305" y2="379"/>
<line stroke="#2658d5" stroke-linecap="round" stroke-width="3" x1="427" x2="401" y1="305" y2="379"/>
<line stroke="#2658d5" stroke-linecap="round" stroke-width="3" x1="602" x2="748" y1="232" y2="181"/>
<line stroke="#2658d5" stroke-linecap="round" stroke-width="3" x1="602" x2="748" y1="232" y2="181"/>
<line stroke="#2658d5" stroke-linecap="round" stroke-width="3" x1="2039" x2="2847" y1="10" y2="10"/>
<line stroke="#2658d5" stroke-linecap="round" stroke-width="3" x1="2039" x2="2847" y1="10" y2="10"/>
<line stroke="#2658d5" stroke-linecap="round" stroke-width="3" x1="750" x2="866" y1="10" y2="10"/>
<line stroke="#2658d5" stroke-linecap="round" stroke-width="3" x1="750" x2="866" y1="10" y2="10"/>
<line stroke="#2658d5" stroke-linecap="round" stroke-width="3" x1="10" x2="10" y1="10" y2="10"/>
<line stroke="#2658d5" stroke-linecap="round" stroke-width="3" x1="10" x2="10" y1="10" y2="10"/>
<line stroke="#2658d5" stroke-linecap="round" stroke-width="3" x1="10" x2="10" y1="278" y2="356"/>
<line stroke="#2658d5" stroke-linecap="round" stroke-width="3" x1="10" x2="10" y1="278" y2="356"/>
<line stroke="#2658d5" stroke-linecap="round" stroke-width="3" x1="284" x2="334" y1="377" y2="574"/>
<line stroke="#2658d5" stroke-linecap="round" stroke-width="3" x1="284" x2="334" y1="377" y2="574"/>
<line stroke="#2658d5" stroke-linecap="round" stroke-width="3" x1="401" x2="334" y1="379" y2="574"/>
<line stroke="#2658d5" stroke-linecap="round" stroke-width="3" x1="401" x2="334" y1="379" y2="574"/>
<line stroke="#2658d5" stroke-linecap="round" stroke-width="3" x1="748" x2="1286" y1="181" y2="10"/>
<line stroke="#2658d5" stroke-linecap="round" stroke-width="3" x1="748" x2="1286" y1="181" y2="10"/>
<line stroke="#2658d5" stroke-linecap="round" stroke-width="3" x1="2847" x2="6054" y1="10" y2="10"/>
<line stroke="#2658d5" stroke-linecap="round" stroke-width="3" x1="2847" x2="6054" y1="10" y2="10"/>
<line stroke="#2658d5" stroke-linecap="round" stroke-width="3" x1="866" x2="1280" y1="10" y2="10"/>
<line stroke="#2658d5" stroke-linecap="round" stroke-width="3" x1="866" x2="1280" y1="10" y2="10"/>
<line stroke="#2658d5" stroke-linecap="round" stroke-width="3" x1="10" x2="10" y1="10" y2="10"/>
<line stroke="#2658d5" stroke-linecap="round" stroke-width="3" x1="10" x2="10" y1="10" y2="10"/>
<line stroke="#2658d5" stroke-linecap="round" stroke-width="3" x1="10" x2="10" y1="356" y2="382"/>
<line stroke="#2658d5" stroke-linecap="round" stroke-width="3" x1="10" x2="10" y1="356" y2="382"/>
<line stroke="#2658d5" stroke-linecap="round" stroke-width="3" x1="334" x2="332" y1="574" y2="641"/>
<line stroke="#2658d5" stroke-linecap="round" stroke-width="3" x1="334" x2="332" y1="574" y2="641"/>
<line stroke="#2658d5" stroke-linecap="round" stroke-width="3" x1="1286" x2="1462" y1="10" y2="10"/>
<line stroke="#2658d5" stroke-linecap="round" stroke-width="3" x1="1286" x2="1462" y1="10" y2="10"/>
<line stroke="#2658d5" stroke-linecap="round" stroke-width="3" x1="6054" x2="7115" y1="10" y2="10"/>
<line stroke="#2658d5" stroke-linecap="round" stroke-width="3" x1="6054" x2="7115" y1="10" y2="10"/>
<line stroke="#2658d5" stroke-linecap="round" stroke-width="3" x1="1280" x2="1409" y1="10" y2="10"/>
<line stroke="#2658d5" stroke-linecap="round" stroke-width="3" x1="1280" x2="1409" y1="10" y2="10"/>
<line stroke="#2658d5" stroke-linecap="round" stroke-width="3" x1="10" x2="10" y1="10" y2="10"/>
<line stroke="#2658d5" stroke-linecap="round" stroke-width="3" x1="10" x2="10" y1="10" y2="10"/>
<line stroke="#2658d5" stroke-linecap="round" stroke-width="3" x1="10" x2="10" y1="382" y2="428"/>
<line stroke="#2658d5" stroke-linecap="round" stroke-width="3" x1="10" x2="10" y1="382" y2="428"/>
<line stroke="#2658d5" stroke-linecap="round" stroke-width="3" x1="332" x2="327" y1="641" y2="761"/>
<line stroke="#2658d5" stroke-linecap="round" stroke-width="3" x1="332" x2="327" y1="641" y2="761"/>
<line stroke="#2658d5" stroke-linecap="round" stroke-width="3" x1="1462" x2="1788" y1="10" y2="10"/>
<line stroke="#2658d5" stroke-linecap="round" stroke-width="3" x1="1462" x2="1788" y1="10" y2="10"/>
<line stroke="#2658d5" stroke-linecap="round" stroke-width="3" x1="7115" x2="9088" y1="10" y2="10"/>
<line stroke="#2658d5" stroke-linecap="round" stroke-width="3" x1="7115" x2="9088" y1="10" y2="10"/>
<line stroke="#2658d5" stroke-linecap="round" stroke-width="3" x1="1409" x2="1647" y1="10" y2="10"/>
<line stroke="#2658d5" stroke-linecap="round" stroke-width="3" x1="1409" x2="1647" y1="10" y2="10"/>
<circle cx="190" cy="334" fill="#fc1212" r="3"/>
<circle cx="326" cy="374" fill="#fc1212" r="3"/>
<circle cx="498" cy="346" fill="#fc1212" r="3"/>
<circle cx="278" cy="326" fill="#fc1212" r="3"/>
<circle cx="190" cy="278" fill="#fc1212" r="3"/>
<circle cx="270" cy="258" fill="#fc1212" r="3"/>
<circle cx="346" cy="294" fill="#fc1212" r="3"/>
<circle cx="222" cy="218" fill="#fc1212" r="3"/>
<circle cx="342" cy="206" fill="#fc1212" r="3"/>
<circle cx="406" cy="242" fill="#fc1212" r="3"/>
<circle cx="138" cy="134" fill="#fc1212" r="3"/>
<circle cx="298" cy="174" fill="#fc1212" r="3"/>
<circle cx="450" cy="210" fill="#fc1212" r="3"/>
</svg>