<svg height="620" style="background-color:#F2F3F5" viewBox="0 0 620 620" width="620" xmlns="http://www.w3.org/2000/svg">
<rect fill="#F5F5F5" height="600" stroke="#121212" stroke-width="3" width="600" x="10" y="10"/>
<line stroke="#372d35" stroke-linecap="round" stroke-width="3" x1="203" x2="231" y1="10" y2="327"/>
<line stroke="#372d35" stroke-linecap="round" stroke-width="3" x1="231" x2="238" y1="327" y2="412"/>
<line stroke="#372d35" stroke-linecap="round" stroke-width="3" x1="238" x2="232" y1="412" y2="433"/>
<line stroke="#372d35" stroke-linecap="round" stroke-width="3" x1="232" x2="182" y1="432" y2="610"/>
<line stroke="#372d35" stroke-linecap="round" stroke-width="3" x1="185" x2="10" y1="10" y2="10"/>
<line stroke="#372d35" stroke-linecap="round" stroke-width="3" x1="185" x2="231" y1="10" y2="327"/>
<line stroke="#372d35" stroke-linecap="round" stroke-width="3" x1="10" x2="10" y1="10" y2="10"/>
<line stroke="#372d35" stroke-linecap="round" stroke-width="3" x1="231" x2="238" y1="327" y2="412"/>
<line stroke="#372d35" stroke-linecap="round" stroke-width="3" x1="10" x2="10" y1="10" y2="10"/>
<line stroke="#372d35" stroke-linecap="round" stroke-width="3" x1="238" x2="232" y1="412" y2="433"/>
<line stroke="#372d35" stroke-linecap="round" stroke-width="3" x1="10" x2="10" y1="10" y2="10"/>
<line stroke="#372d35" stroke-linecap="round" stroke-width="3" x1="232" x2="136" y1="433" y2="770"/>
<line stroke="#ea89b0" stroke-linecap="round" stroke-width="3" x1="325" x2="238" y1="325" y2="412"/>
<line stroke="#ea89b0" stroke-linecap="round" stroke-width="3" x1="610" x2="325" y1="41" y2="325"/>
<line stroke="#ea89b0" stroke-linecap="round" stroke-width="3" x1="238" x2="232" y1="412" y2="433"/>
<line stroke="#ea89b0" stroke-linecap="round" stroke-width="3" x1="232" x2="182" y1="432" y2="610"/>
<line stroke="#ea89b0" stroke-linecap="round" stroke-width="3" x1="325" x2="238" y1="325" y2="412"/>
<line stroke="#ea89b0" stroke-linecap="round" stroke-width="3" x1="325" x2="680" y1="325" y2="10"/>
<line stroke="#ea89b0" stroke-linecap="round" stroke-width="3" x1="238" x2="232" y1="412" y2="433"/>
<line stroke="#ea89b0" stroke-linecap="round" stroke-width="3" x1="680" x2="766" y1="10" y2="10"/>
<line stroke="#ea89b0" stroke-linecap="round" stroke-width="3" x1="232" x2="136" y1="433" y2="770"/>
<line stroke="#ea89b0" stroke-linecap="round" stroke-width="3" x1="766" x2="1566" y1="10" y2="10"/>
<line stroke="#fb0646" stroke-linecap="round" stroke-width="3" x1="203" x2="231" y1="10" y2="327"/>
<line stroke="#fb0646" stroke-linecap="round" stroke-width="3" x1="231" x2="238" y1="327" y2="412"/>
<line stroke="#fb0646" stroke-linecap="round" stroke-width="3" x1="325" x2="238" y1="325" y2="412"/>
<line stroke="#fb0646" stroke-linecap="round" stroke-width="3" x1="610" x2="325" y1="41" y2="325"/>
<line stroke="#fb0646" stroke-linecap="round" stroke-width="3" x1="277" x2="191" y1="10" y2="10"/>
<line stroke="#fb0646" stroke-linecap="round" stroke-width="3" x1="277" x2="363" y1="10" y2="10"/>
<line stroke="#fb0646" stroke-linecap="round" stroke-width="3" x1="191" x2="191" y1="10" y2="10"/>
<line stroke="#fb0646" stroke-linecap="round" stroke-width="3" x1="363" x2="363" y1="10" y2="10"/>
<line stroke="#fb0646" stroke-linecap="round" stroke-width="3" x1="185" x2="231" y1="10" y2="327"/>
<line stroke="#fb0646" stroke-linecap="round" stroke-width="3" x1="363" x2="491" y1="10" y2="10"/>
<line stroke="#fb0646" stroke-linecap="round" stroke-width="3" x1="231" x2="238" y1="327" y2="412"/>
<line stroke="#fb0646" stroke-linecap="round" stroke-width="3" x1="325" x2="238" y1="325" y2="412"/>
<line stroke="#fb0646" stroke-linecap="round" stroke-width="3" x1="325" x2="680" y1="325" y2="10"/>
<line stroke="#fb0646" stroke-linecap="round" stroke-width="3" x1="491" x2="718" y1="10" y2="10"/>
<line stroke="#fb0646" stroke-linecap="round" stroke-width="3" x1="680" x2="766" y1="10" y2="10"/>
<line stroke="#fb0646" stroke-linecap="round" stroke-width="3" x1="718" x2="766" y1="10" y2="10"/>
<circle cx="185" cy="333" fill="#fc1212" r="3"/>
<circle cx="325" cy="373" fill="#fc1212" r="3"/>
<circle cx="277" cy="325" fill="#fc1212" r="3"/>
</svg>