<svg height="620" style="background-color:#F2F3F5" viewBox="0 0 620 620" width="620" xmlns="http://www.w3.org/2000/svg">
<rect fill="#F5F5F5" height="600" stroke="#121212" stroke-width="3" width="600" x="10" y="10"/>
<line stroke="#c48709" stroke-linecap="round" stroke-width="3" x1="189" x2="209" y1="10" y2="89"/>
<line stroke="#c48709" stroke-linecap="round" stroke-width="3" x1="210" x2="211" y1="80" y2="96"/>
<line stroke="#c48709" stroke-linecap="round" stroke-width="3" x1="211" x2="226" y1="96" y2="269"/>
<line stroke="#c48709" stroke-linecap="round" stroke-width="3" x1="226" x2="231" y1="269" y2="327"/>
<line stroke="#c48709" stroke-linecap="round" stroke-width="3" x1="231" x2="231" y1="327" y2="327"/>
<line stroke="#c48709" stroke-linecap="round" stroke-width="3" x1="231" x2="243" y1="327" y2="464"/>
<line stroke="#c48709" stroke-linecap="round" stroke-width="3" x1="243" x2="255" y1="464" y2="610"/>
<circle cx="185" cy="333" fill="#c48709" r="3"/>
<text fill="#c48709" stroke="none" x="175" y="323">
100
</text>
<line stroke="#e91f9a" stroke-linecap="round" stroke-width="3" x1="325" x2="321" y1="331" y2="329"/>
<line stroke="#e91f9a" stroke-linecap="round" stroke-width="3" x1="325" x2="329" y1="331" y2="332"/>
<circle cx="325" cy="373" fill="#e91f9a" r="3"/>
<text fill="#e91f9a" stroke="none" x="315" y="363">
101
</text>
<line stroke="#7b36a2" stroke-linecap="round" stroke-width="3" x1="497" x2="433" y1="97" y2="285"/>
<line stroke="#7b36a2" stroke-linecap="round" stroke-width="3" x1="527" x2="497" y1="10" y2="97"/>
<line stroke="#7b36a2" stroke-linecap="round" stroke-width="3" x1="433" x2="433" y1="285" y2="286"/>
<line stroke="#7b36a2" stroke-linecap="round" stroke-width="3" x1="433" x2="377" y1="286" y2="449"/>
<line stroke="#7b36a2" stroke-linecap="round" stroke-width="3" x1="377" x2="362" y1="449" y2="610"/>
<circle cx="497" cy="345" fill="#7b36a2" r="3"/>
<text fill="#7b36a2" stroke="none" x="487" y="335">
102
</text>
<line stroke="#f6ce95" stroke-linecap="round" stroke-width="3" x1="277" x2="218" y1="237" y2="112"/>
<line stroke="#f6ce95" stroke-linecap="round" stroke-width="3" x1="277" x2="302" y1="237" y2="290"/>
<line stroke="#f6ce95" stroke-linecap="round" stroke-width="3" x1="218" x2="212" y1="112" y2="99"/>
<line stroke="#f6ce95" stroke-linecap="round" stroke-width="3" x1="302" x2="303" y1="290" y2="292"/>
<line stroke="#f6ce95" stroke-linecap="round" stroke-width="3" x1="210" x2="211" y1="80" y2="96"/>
<line stroke="#f6ce95" stroke-linecap="round" stroke-width="3" x1="303" x2="304" y1="292" y2="293"/>
<line stroke="#f6ce95" stroke-linecap="round" stroke-width="3" x1="211" x2="226" y1="96" y2="269"/>
<line stroke="#f6ce95" stroke-linecap="round" stroke-width="3" x1="304" x2="310" y1="293" y2="308"/>
<line stroke="#f6ce95" stroke-linecap="round" stroke-width="3" x1="226" x2="231" y1="269" y2="327"/>
<line stroke="#f6ce95" stroke-linecap="round" stroke-width="3" x1="310" x2="321" y1="308" y2="329"/>
<line stroke="#f6ce95" stroke-linecap="round" stroke-width="3" x1="231" x2="231" y1="327" y2="327"/>
<line stroke="#f6ce95" stroke-linecap="round" stroke-width="3" x1="321" x2="321" y1="329" y2="329"/>
<line stroke="#f6ce95" stroke-linecap="round" stroke-width="3" x1="231" x2="243" y1="327" y2="464"/>
<line stroke="#f6ce95" stroke-linecap="round" stroke-width="3" x1="321" x2="377" y1="329" y2="449"/>
<line stroke="#f6ce95" stroke-linecap="round" stroke-width="3" x1="243" x2="255" y1="464" y2="610"/>
<line stroke="#f6ce95" stroke-linecap="round" stroke-width="3" x1="377" x2="362" y1="449" y2="610"/>
<circle cx="277" cy="325" fill="#f6ce95" r="3"/>
<text fill="#f6ce95" stroke="none" x="267" y="315">
103
</text>
<line stroke="#e6fa14" stroke-linecap="round" stroke-width="3" x1="277" x2="218" y1="237" y2="112"/>
<line stroke="#e6fa14" stroke-linecap="round" stroke-width="3" x1="277" x2="302" y1="237" y2="290"/>
<line stroke="#e6fa14" stroke-linecap="round" stroke-width="3" x1="189" x2="209" y1="10" y2="89"/>
<line stroke="#e6fa14" stroke-linecap="round" stroke-width="3" x1="218" x2="212" y1="112" y2="99"/>
<line stroke="#e6fa14" stroke-linecap="round" stroke-width="3" x1="302" x2="303" y1="290" y2="292"/>
<line stroke="#e6fa14" stroke-linecap="round" stroke-width="3" x1="303" x2="304" y1="292" y2="293"/>
<line stroke="#e6fa14" stroke-linecap="round" stroke-width="3" x1="304" x2="310" y1="293" y2="308"/>
<line stroke="#e6fa14" stroke-linecap="round" stroke-width="3" x1="310" x2="321" y1="308" y2="329"/>
<line stroke="#e6fa14" stroke-linecap="round" stroke-width="3" x1="497" x2="433" y1="97" y2="285"/>
<line stroke="#e6fa14" stroke-linecap="round" stroke-width="3" x1="527" x2="497" y1="10" y2="97"/>
<line stroke="#e6fa14" stroke-linecap="round" stroke-width="3" x1="321" x2="321" y1="329" y2="329"/>
<line stroke="#e6fa14" stroke-linecap="round" stroke-width="3" x1="325" x2="321" y1="331" y2="329"/>
<line stroke="#e6fa14" stroke-linecap="round" stroke-width="3" x1="325" x2="329" y1="331" y2="332"/>
<line stroke="#e6fa14" stroke-linecap="round" stroke-width="3" x1="433" x2="433" y1="285" y2="286"/>
<line stroke="#e6fa14" stroke-linecap="round" stroke-width="3" x1="321" x2="377" y1="329" y2="449"/>
<line stroke="#e6fa14" stroke-linecap="round" stroke-width="3" x1="433" x2="377" y1="286" y2="449"/>
<circle cx="345" cy="293" fill="#e6fa14" r="3"/>
<text fill="#e6fa14" stroke="none" x="335" y="283">
106
</text>
</svg>